<svg id="Layer_1" data-name="Layer 1" xmlns="http://www.w3.org/2000/svg" viewBox="0 0 584.34 584.25"><defs><style>.cls-1{fill:#093e6f;}</style></defs><path class="cls-1" d="M980.32,192.58a302.63,302.63,0,0,0-46.72,5.74,292.21,292.21,0,1,0,330.28,178.75c-34.54-86.91-109.26-152.71-199.36-175.57a295.72,295.72,0,0,0-50.64-8.32C1008.32,192.71,985.12,192.33,980.32,192.58Zm29.1,34.15c62.07,4.34,118.9,29.66,162.91,72.52,43.63,42.48,70.22,96.51,77.06,156.66a228.8,228.8,0,0,1,1.4,33.56,208.73,208.73,0,0,1-2,28.85c-6.29,49.23-27.19,95.75-60.58,134.91-6.12,7.22-22,22.81-29.48,29.06-41.08,34.28-87.21,53.69-141.67,59.6-9.73,1.06-39.12,1.06-48.85,0-34.88-3.78-65.12-12.7-94.05-27.78a260.48,260.48,0,0,1-96.43-86.32,257.88,257.88,0,0,1-40.78-106c-2-14.15-2.34-18.74-2.34-37.17s.26-22.9,2.34-37.17c11.72-81.65,62.95-153.61,136.74-192.14a261.39,261.39,0,0,1,103.65-28.67C983,226.27,1004,226.35,1009.42,226.73Z" transform="translate(-700.06 -192.5)"/><path class="cls-1" d="M982.24,261.4c-1.15.08-4.8.34-8.08.59-51.95,4-102.12,27.23-139.63,64.74-32.71,32.71-54.67,74.77-62.31,119.63a220.11,220.11,0,0,0,0,76.88A224,224,0,0,0,959.3,705.91c11.89,1.78,19.07,2.25,33.13,2.25,17.25,0,27.4-.94,43.12-4a223.47,223.47,0,0,0,100-391,224.49,224.49,0,0,0-122.17-51C1007.21,261.57,986.74,261.06,982.24,261.4Zm29.94,32.67a192.08,192.08,0,1,1-64.95,4.5,208.88,208.88,0,0,1,35.43-5.31C987.8,292.92,1006.19,293.43,1012.18,294.07Z" transform="translate(-700.06 -192.5)"/><path class="cls-1" d="M981.17,337.23a148.35,148.35,0,0,0-63.12,19.54c-39.38,23.1-65.84,62.06-72.39,106.45a148.16,148.16,0,0,0,19.42,97.83,149.66,149.66,0,0,0,63.5,57.73,146.32,146.32,0,0,0,59,14.32c62.27,2.21,120-35.94,142.86-94.56a153.66,153.66,0,0,0,9.26-38c.68-5.57.72-24.17,0-30.38-5.23-47.83-31.82-89-73.32-113.37A148.82,148.82,0,0,0,981.17,337.23Zm25.24,24.42c36.87,4,71.28,25.79,91,57.73a123.51,123.51,0,0,1-2.12,133.9c-38.23,57.39-116.14,72.6-172.77,33.77a132.51,132.51,0,0,1-27-24.94,123.78,123.78,0,0,1,57.68-195C970.89,361.31,987.29,359.61,1006.41,361.65Z" transform="translate(-700.06 -192.5)"/></svg>