<svg id="Layer_1" data-name="Layer 1" xmlns="http://www.w3.org/2000/svg" viewBox="0 0 592.72 812.68"><defs><style>.cls-1{fill:#fff;}</style></defs><path class="cls-1" d="M591.42,25.49a303.91,303.91,0,0,0-46.73,5.73c-96.26,19.71-176.63,87.17-213,178.76A292.17,292.17,0,1,0,875,210C840.43,123.07,765.71,57.26,675.61,34.41A296.7,296.7,0,0,0,625,26.08C619.41,25.62,596.22,25.23,591.42,25.49Zm29.09,34.15C682.58,64,739.42,89.29,783.42,132.16c43.63,42.48,70.22,96.51,77.06,156.66a228.8,228.8,0,0,1,1.4,33.56,207.3,207.3,0,0,1-2,28.85C853.6,400.46,832.7,447,799.31,486.14c-6.11,7.22-22,22.81-29.48,29.06-41.08,34.28-87.21,53.69-141.67,59.6-9.73,1.06-39.12,1.06-48.85,0-34.88-3.78-65.12-12.7-94-27.79A259,259,0,0,1,348.05,354.67c-2-14.15-2.34-18.74-2.34-37.17s.26-22.9,2.34-37.17C359.77,198.68,411,126.72,484.79,88.19A261.39,261.39,0,0,1,588.44,59.52C594.13,59.18,615.12,59.26,620.51,59.64Z" transform="translate(-303.7 -25.41)"/><path class="cls-1" d="M593.33,94.31c-1.15.08-4.8.34-8.07.59-52,4-102.13,27.23-139.64,64.74-32.7,32.71-54.67,74.77-62.31,119.62a220.17,220.17,0,0,0,0,76.89A224.06,224.06,0,0,0,570.39,538.82c11.89,1.78,19.07,2.25,33.13,2.25,17.25,0,27.4-.94,43.12-4a223.46,223.46,0,0,0,100-391,224.39,224.39,0,0,0-122.17-51C618.31,94.48,597.83,94,593.33,94.31ZM623.28,127a192.12,192.12,0,1,1-65,4.51,208,208,0,0,1,35.43-5.31C598.89,125.83,617.29,126.34,623.28,127Z" transform="translate(-303.7 -25.41)"/><path class="cls-1" d="M592.27,170.13a148.49,148.49,0,0,0-63.13,19.54c-39.38,23.11-65.84,62.07-72.39,106.46a148.18,148.18,0,0,0,82.93,155.56,146.23,146.23,0,0,0,59,14.32c62.27,2.2,120-35.94,142.86-94.56a153.33,153.33,0,0,0,9.26-38c.68-5.57.72-24.17,0-30.38-5.22-47.83-31.82-89-73.32-113.38C652.37,174.93,622,168,592.27,170.13Zm25.23,24.43c36.87,3.95,71.28,25.78,91,57.73a123.51,123.51,0,0,1-2.12,133.9C668.18,443.58,590.27,458.78,533.64,420a132.51,132.51,0,0,1-27-24.94,123.78,123.78,0,0,1,57.69-195C582,194.22,598.38,192.52,617.5,194.56Z" transform="translate(-303.7 -25.41)"/><path class="cls-1" d="M329.1,633.8c-11.13,1.66-18.82,6.42-22.47,13.89a26.64,26.64,0,0,0-2.93,13c0,9,3.48,15.76,10.66,20.56,6.46,4.29,13.09,6,33.56,8.5,14.95,1.87,16.19,2.34,16.23,6.07,0,2.34-1.7,4.08-5,5.1-3.49,1.11-15.42,1.06-20.48,0a49.77,49.77,0,0,1-31.73-21.75c-.38-.64-.51,3.14-.51,17.33,0,10,0,18.18.17,18.18s2.93-1.53,6.24-3.4l6-3.39,3.87,1.65c21.83,9.35,43.37,8.33,54.2-2.5,5-5,7-10.2,6.93-18.06s-2.59-13.85-8.24-19.11c-5.87-5.4-13.22-7.56-34.37-10.2-16.78-2.08-20.09-3.31-20.09-7.43,0-3.7,3.39-5.48,11.21-5.82,13.89-.64,26.55,4.5,39.59,16.14l3.27,2.93V634l-6.58,3.19c-3.65,1.74-6.8,3.14-7.05,3.14a19.3,19.3,0,0,1-3.27-1.44,53,53,0,0,0-12.92-4.29C341.93,633.93,331.65,633.42,329.1,633.8Z" transform="translate(-303.7 -25.41)"/><path class="cls-1" d="M836.31,633.8c-11.13,1.66-18.82,6.42-22.47,13.89a26.64,26.64,0,0,0-2.93,13c0,9,3.48,15.76,10.66,20.56,6.46,4.29,13.09,6,33.56,8.5,15,1.87,16.19,2.34,16.23,6.07,0,2.34-1.7,4.08-5,5.1-3.49,1.11-15.42,1.06-20.48,0a49.77,49.77,0,0,1-31.73-21.75c-.38-.64-.51,3.14-.51,17.33,0,10,0,18.18.17,18.18s2.93-1.53,6.24-3.4l6-3.39,3.87,1.65c21.83,9.35,43.37,8.33,54.2-2.5,5-5,7-10.2,6.93-18.06s-2.6-13.85-8.24-19.11c-5.87-5.4-13.22-7.56-34.37-10.2-16.78-2.08-20.09-3.31-20.09-7.43,0-3.7,3.39-5.48,11.21-5.82,13.89-.64,26.55,4.5,39.59,16.14l3.27,2.93V634l-6.58,3.19c-3.65,1.74-6.8,3.14-7.05,3.14a19.3,19.3,0,0,1-3.27-1.44,53,53,0,0,0-12.92-4.29C849.14,633.93,838.86,633.42,836.31,633.8Z" transform="translate(-303.7 -25.41)"/><path class="cls-1" d="M643.54,635.5A51.39,51.39,0,0,0,615,650.33c-5.73,5.69-9,11-10.92,17.5-.8,2.76-1,4.33-1,9.26,0,5.39.13,6.29,1.23,9.34,3,8.67,8.71,15.38,18.27,21.37,15.93,10.07,40.14,10.83,55.69,1.83,3.48-2,9.05-7.65,10.74-11,3.74-7.1,4.08-16.57.77-20.69l-1-1.23-.25,2.76a18.31,18.31,0,0,1-7.73,13.38c-6,4.55-11.81,6.46-20.61,6.8-7.6.29-12.49-.51-17.29-2.85-5.22-2.59-8-6.2-9.77-12.74-1.1-4.17-1-14.79.22-19.25,3.14-11.51,10.83-16.56,24.08-15.88A33,33,0,0,1,670.73,652c7,3.22,12.61,8.53,17.16,16.26l1.65,2.85V653.81c0-9.52-.12-17.29-.29-17.29a32.78,32.78,0,0,0-3.7,3.06c-1.91,1.66-3.86,3.44-4.37,3.86l-.94.85-2.68-1.74A48.26,48.26,0,0,0,643.54,635.5Z" transform="translate(-303.7 -25.41)"/><path class="cls-1" d="M401,646.16l9.05,8.84,0,19.75V694.5l-9,8.8-9,8.79h30.55l30.54,0-9-8.75-9-8.75V687.5h14.15c14.74,0,19.24-.3,24.42-1.7,6.67-1.83,13-6.25,15.51-11,3.35-6.16,3.23-15.34-.26-21.88s-11.85-12.28-21.58-14.57c-2.84-.68-6.54-.77-39.25-.89L392,637.37ZM458.37,652c4.25,1.27,6.46,5,6.46,10.83,0,3.65-.94,6.75-2.47,8.2-2.21,2.12-4.2,2.42-16.31,2.42h-11V651.39h10.53C453.87,651.39,456.67,651.52,458.37,652Z" transform="translate(-303.7 -25.41)"/><path class="cls-1" d="M515.8,637.62c0,.13,2.51,3.19,5.57,6.84l5.56,6.59-10.07,21.79L506.8,694.63l-6.8,8.24c-3.74,4.51-7,8.46-7.22,8.71-.34.43,4.16.55,22.43.55H538.1l-4.88-5c-2.68-2.72-6-6.16-7.39-7.6l-2.51-2.64,1-2.54.93-2.6h28.42l1.06,2.34a21.34,21.34,0,0,1,1,2.68c0,.17-3.74,3.65-8.32,7.73l-8.33,7.43,15.34.13c8.45,0,22.21,0,30.62,0l15.3-.13-9.09-8.49-9.09-8.5-9.78-20.82-10.32-22c-.47-1.1-.3-1.36,4.5-7,2.77-3.23,5.4-6.28,5.87-6.84l.85-.93H544.56C528.76,637.37,515.8,637.5,515.8,637.62Zm27.78,31.86,4.42,9.73-8.71.13c-4.8,0-8.79,0-8.88,0s1.49-3.95,3.49-8.63l4.25-9.89c.34-.81.68-1.36.8-1.24S541.16,664.13,543.58,669.48Z" transform="translate(-303.7 -25.41)"/><path class="cls-1" d="M708.58,646.21l9,8.79v39.5l-9,8.8-9.05,8.79,48.76,0H797v-18c0-9.94,0-18.05-.13-18.05s-4.5,4.75-9.85,10.62l-9.73,10.62H742.64V680.7h19l6.55,4.93,6.5,4.92.12-16.27c0-8.92,0-16.31-.08-16.39a57.87,57.87,0,0,0-6.59,3.86l-6.45,4.08H742.64V649.69h34.63l8.36,9c4.63,5,8.8,9.43,9.26,9.85l.85.77v-32H747.66l-48.13,0Z" transform="translate(-303.7 -25.41)"/><path class="cls-1" d="M306.08,741.15c-2.38,2.59-2.47,2.8-1.57,3.52a17.74,17.74,0,0,0,2.46,1.49l1.61.89,1.45-1.4,1.4-1.36,2.38,1.36c2.68,1.53,2.72,1.53,4.93-1.27L320,742.8l-2.59-1.57-2.59-1.57L313.43,741a4.86,4.86,0,0,1-1.91,1.31,7.67,7.67,0,0,1-2.34-1.23l-1.83-1.27Z" transform="translate(-303.7 -25.41)"/><path class="cls-1" d="M755.94,741.15c-2.38,2.59-2.46,2.8-1.57,3.52a17.74,17.74,0,0,0,2.46,1.49l1.62.89,1.44-1.4,1.4-1.36,2.38,1.36c2.68,1.53,2.72,1.53,4.93-1.27l1.23-1.58-2.59-1.57-2.59-1.57L763.29,741a4.86,4.86,0,0,1-1.91,1.31,7.67,7.67,0,0,1-2.34-1.23l-1.83-1.27Z" transform="translate(-303.7 -25.41)"/><path class="cls-1" d="M494.56,741.91a27.47,27.47,0,0,0-.51,5.35c0,3.32,0,3.66,1.11,4.76a14.49,14.49,0,0,0,3.22,2.34l2.09,1.15.46-.9c.47-.85.51-.85,1.79.73a26.66,26.66,0,0,1,3.78,7.09c.72,2.55-1.36,4.42-10.45,9.39l-5.95,3.27,4.33-.26c5.7-.34,8.29-.89,11.35-2.5s5.05-4.16,6.24-8.16c1.49-4.88,1.57-4.76,2.34,4.55l.25,3.31h18.18v-6.8h-7.18c-4,0-7.3-.17-7.43-.38s-.64-4.67-1.1-9.85c-1.19-13.38-1.24-13.68-2-13.09-1.44,1.23-2,3.19-2.29,8.29-.26,4.16-.51,5.69-1.45,7.85a38.86,38.86,0,0,0-2.25,6.33c-.34,1.24-.43.81-.47-2.59,0-5-.76-7.52-3.06-10.83a59.35,59.35,0,0,0-9-9.56L495,740.13Z" transform="translate(-303.7 -25.41)"/><path class="cls-1" d="M617.07,741.91a7.19,7.19,0,0,1-2.08,1.66,9.49,9.49,0,0,1-2.42-1.23l-1.91-1.23-1.79,2.08-1.74,2,1.36,1c2.93,2.16,3.27,2.2,4.8.72l1.45-1.4,2.38,1.36a6.87,6.87,0,0,0,3,1.14A7.75,7.75,0,0,0,622,746l1.32-1.91-2.3-1.91-2.25-2Z" transform="translate(-303.7 -25.41)"/><path class="cls-1" d="M409.94,742.59c-1.4,2.13-2.89,5.06-2.89,5.69a3.12,3.12,0,0,0,.81,1.41c1,1.06,2.59,9.26,2.59,13.12v2.51l-3.91-.17a18.7,18.7,0,0,1-5-.72c-1-.56-1-.6-.68-5.44l.3-4.89-1.44,1.62c-2.42,2.72-2.89,3.65-2.89,5.69,0,4.08.25,3.91-6.37,3.74-7.86-.17-7.82-.13-7.44-6.5l.26-4.67L382,755.46c-2.29,2.55-3,3.91-3,5.95,0,4,.21,3.82-6.21,3.82-5.09,0-5.77-.08-6.54-.85-1.14-1.14-3-4.88-3-6.11,0-1.66-1.11-2.47-2.89-2.13-3.31.6-6,2.81-8,6.63L351.19,765h-3.52c-3.23,0-3.66-.08-4.38-1a2.44,2.44,0,0,1-.64-1.7,37.87,37.87,0,0,0,.51-4.29l.26-3.61-1.32,1.28a9.2,9.2,0,0,0-3.31,6.79l-.26,2.85-6-.17c-4.29-.09-6.24-.3-6.92-.77-1.11-.72-1.32-1.61-3.1-11.89-1.23-6.92-1.49-8-1.83-7.6-1.19,1.48-3.31,6.28-3.14,7.09s-.26,1.32-3.32,3.31a31.86,31.86,0,0,0-4.8,3.74c-1.14,1.32-2.63,5-3.27,8.16l-.25,1.27,4.37,1a30.85,30.85,0,0,0,5.87.81c1.27-.13,1.61-.39,2.33-1.91,1.36-2.85,1.79-3,2.3-1.15a13.9,13.9,0,0,1,.46,2.21,3.35,3.35,0,0,0,1.07,1.57c1,1.06,1.14,1.06,8,1.06h7l1.06-1.95c1-1.87,1.11-2,1.4-1a6.32,6.32,0,0,0,1.19,1.95c.77.9,1.28,1,4.8,1,4.17,0,4.42-.13,5.14-2.34.26-.72.68-1.23.94-1.14s2.76,1.53,5.6,3.27a30.66,30.66,0,0,0,5.44,3,4.22,4.22,0,0,0,.89-1.52l.51-1.28H377.1l1-1.95,1.07-2,.76,1.53a6.21,6.21,0,0,0,1.57,2,39.43,39.43,0,0,0,7.14.42H395l1-1.91,1-1.91.84,1.36c1.41,2.33,1.7,2.42,8.46,2.46h6.2l.68-1.83c1.23-3.18,1.44-5.73,1-10.74l-.38-4.8,2.12-2.85a19.48,19.48,0,0,0,2.17-3.19,9,9,0,0,0-2.51-1.82c-2.89-1.79-3.35-2.25-4.08-4.29L411,741Zm-90.86,17a11.74,11.74,0,0,1,.34,2.51,34,34,0,0,1-5.74-.85c-.08-.08.55-.59,1.4-1.1a8.52,8.52,0,0,0,2.21-2c.34-.55.81-1,1-1A6.44,6.44,0,0,1,319.08,759.58Zm40.82,4.17c0,1.27-.17,1.31-1.95.17s-1.83-1.53-.47-1.74S359.9,762.6,359.9,763.75Z" transform="translate(-303.7 -25.41)"/><path class="cls-1" d="M568.77,744.55l-1.95,3.52.81,7.18c.46,4,.85,7.86.85,8.58,0,1.36-.05,1.4-1.92,1.4h-1.91v3.4c0,3.36,0,3.4,1.07,3.4.8,0,1.27-.42,2.08-2l1.06-2,0,1.52a3.41,3.41,0,0,0,.51,2c.34.34,2.59.51,7.39.51h6.88l.68-1.83c1.24-3.18,1.45-5.73,1-10.74l-.38-4.8,2.13-2.85a19.83,19.83,0,0,0,2.16-3.19,10.9,10.9,0,0,0-2.59-1.91c-2.59-1.57-4.21-3.48-4.21-5.05,0-.77-.08-.77-.84.21-1.15,1.44-3.4,5.73-3.4,6.41a3.08,3.08,0,0,0,.8,1.41c1,1.06,2.6,9.26,2.6,13.08v2.46h-3.83c-3.65,0-3.86,0-4.2-1-.22-.56-.9-6-1.49-12s-1.19-11-1.23-11.13A22.48,22.48,0,0,0,568.77,744.55Z" transform="translate(-303.7 -25.41)"/><path class="cls-1" d="M727.44,742.85a7.77,7.77,0,0,0-1.79,2.25,9.62,9.62,0,0,0,1.87,2.25c1.28,1.23,2.08,1.74,2.46,1.49,1.75-1.07,3.74-3,3.74-3.61s-3.57-4.21-4.2-4.21A9.55,9.55,0,0,0,727.44,742.85Z" transform="translate(-303.7 -25.41)"/><path class="cls-1" d="M831.94,742.8c-2,2.6-2.47,4.34-1.53,5.74.51.81,1,3.23,1.48,8.07a57.86,57.86,0,0,1,.56,7.52,1.79,1.79,0,0,1-1.15.85c-.51.13-7.77.25-16.1.25-14.57,0-15.25,0-16.06-.85-1.14-1.14-3-4.88-3-6.11,0-1.66-1.11-2.47-2.89-2.13-3.31.6-5.95,2.81-8,6.63L784.06,765h-3.65a12.63,12.63,0,0,1-4.76-.59c-1.27-.68-1.4-1.24-3.27-11.94-1.23-6.92-1.49-8-1.83-7.6-1.19,1.48-3.31,6.28-3.14,7.09s-.26,1.32-3.31,3.31a30.84,30.84,0,0,0-4.8,3.74c-1.15,1.32-2.64,5-3.27,8.16l-.26,1.27,4.38,1a30.68,30.68,0,0,0,5.86.81c1.27-.13,1.61-.39,2.33-1.91,1.36-2.85,1.79-3,2.3-1.15a14.28,14.28,0,0,1,.47,2.21,3.31,3.31,0,0,0,1.06,1.57c1,1,1.31,1.06,5.65,1.06,5,0,5.14-.08,5.9-2.34.26-.72.68-1.23.94-1.14s2.76,1.53,5.6,3.27a30.66,30.66,0,0,0,5.44,3,4.22,4.22,0,0,0,.89-1.52l.51-1.28H869l1-1.95,1.06-2,.77,1.53c1.06,2.08,2,2.42,5.94,2.3l3.49-.13,1-1.7c.51-.94,1-1.87,1.1-2.12s2.29.42,4.88,1.44c4.64,1.83,4.81,1.87,5.4,1.06a22.25,22.25,0,0,0,2.76-5.82c0-1.44-2.55-10.24-3.06-10.53-2.38-1.53-8.92,3.69-11,8.75l-1,2.42-2.51-.21c-4-.34-4.29-.81-3.95-6.46l.25-4.67-1.31,1.48c-2.3,2.55-3,3.91-3,5.95,0,4,.34,3.82-6.88,3.82-5.9,0-6.37,0-6.07-.76.68-1.66.68-2.17-.22-3.91-1.14-2.25-4.29-5.39-5.56-5.61-2.21-.34-8.28,2.26-15.55,6.67a9.26,9.26,0,0,1-1.82,1c0-.08.29-1.19.63-2.46a22.14,22.14,0,0,0,.64-4.68c0-1.91.17-2.46.89-2.89a7.43,7.43,0,0,0,1.83-2.71l1-2.21-2-1.28a14.27,14.27,0,0,1-3.27-3.31l-1.32-1.95Zm-63,16.78a11.74,11.74,0,0,1,.34,2.51,34.17,34.17,0,0,1-5.74-.85c-.08-.08.56-.59,1.41-1.1a8.46,8.46,0,0,0,2.2-2c.34-.55.81-1,1-1A6.44,6.44,0,0,1,768.94,759.58Zm121,1.07c.47.46.73,2,.3,2a15.35,15.35,0,0,1-1.66-.73c-1.18-.55-1.4-.8-1.06-1.27A1.69,1.69,0,0,1,890,760.65Zm-39.76,1.14a8.74,8.74,0,0,1,2.47,2.13c.46.89.42.89-7,.89-4.08,0-7.44-.09-7.44-.17,0-.38,4.85-2.93,6.55-3.48C847.36,760.35,848,760.43,850.2,761.79Zm-57.43,2c0,1.27-.17,1.31-1.95.17s-1.83-1.53-.47-1.74S792.77,762.6,792.77,763.75Z" transform="translate(-303.7 -25.41)"/><path class="cls-1" d="M396.86,742.93a9.35,9.35,0,0,1-1.7,1.49,13.15,13.15,0,0,1-2.34-1.36l-2-1.36-1.61,1.78a7.41,7.41,0,0,0-1.66,2.21c0,.51,3.7,3,4.46,3a4.28,4.28,0,0,0,1.66-1.24l1.23-1.27,2.21,1.27a10,10,0,0,0,2.85,1.24c.34,0,1.27-.9,2-2l1.44-1.95-1-.68c-.55-.39-1.7-1.11-2.55-1.62l-1.57-.93Z" transform="translate(-303.7 -25.41)"/><path class="cls-1" d="M664.57,743.78a8.47,8.47,0,0,0-1.79,3.82c0,.68.38,6.16.85,12.11s.85,11.17.85,11.56c0,.68.6.76,6.33.76,5.4,0,6.46-.13,7.09-.72s.73-.68,1.24,0,2.89.72,31.39.72h30.84l.42-1.06a33.25,33.25,0,0,0,.9-4.84,16.91,16.91,0,0,0-.17-6.89c-2.25-10.91-6.16-13.42-11.73-7.39-2.42,2.64-4,6.16-3.69,8,.29,1.66,1.14,2.51,3.35,3.44a5.56,5.56,0,0,0,6.12-1.19c.76-.68,1.53-1.14,1.66-1a8.7,8.7,0,0,1,.76,3.78c-.13.17-7.31.34-16,.34H707.26l.25-1.48a7,7,0,0,0-8.54-7.82c-2.63.6-4.5,1.62-9.89,5.48-3.74,2.72-5,3.4-6.21,3.4-1.35,0-1.48-.09-1.23-1,1.53-5.39,1.83-7.09,1.23-7.09-.89.08-3.78,4.33-4,6a4.16,4.16,0,0,1-.85,2.16c-.64.39-6,.47-7.9.09a1.8,1.8,0,0,1-1.53-1.19c-.13-.47-.51-4.93-.89-9.81s-.81-9.77-1-10.84l-.3-1.86ZM735,755.29c1.23,1.53,1.1,1.87-.47,1.87s-2.89-.8-2.89-1.61c0-.51,1.19-1.32,2-1.36A3.08,3.08,0,0,1,735,755.29ZM699,761.88c1.4.72,2.84,2.16,2.84,2.8,0,.43-1.36.55-6.37.55-3.48,0-6.37-.17-6.37-.34,0-.34,4.46-2.71,6-3.22A6.51,6.51,0,0,1,699,761.88Z" transform="translate(-303.7 -25.41)"/><path class="cls-1" d="M691.54,743.91l-2.42,2.46,2,1.49c3.73,2.8,3.52,2.8,6.24,0a14.68,14.68,0,0,0,2.38-2.85,26,26,0,0,0-5.44-3.52A17.75,17.75,0,0,0,691.54,743.91Z" transform="translate(-303.7 -25.41)"/><path class="cls-1" d="M375.49,744c-2.59,2.89-2.68,3.27-.85,4.42.89.55,2.21,1.32,3,1.7l1.32.72,1.49-1.66c1.48-1.65,2.63-3.39,2.33-3.65a62.77,62.77,0,0,0-5.48-3.19A8.25,8.25,0,0,0,375.49,744Z" transform="translate(-303.7 -25.41)"/><path class="cls-1" d="M867.41,744c-2.59,2.89-2.68,3.27-.85,4.42.89.55,2.21,1.32,3,1.7l1.32.72,1.49-1.66c1.48-1.65,2.63-3.39,2.33-3.65s-5.27-3.19-5.48-3.19A8,8,0,0,0,867.41,744Z" transform="translate(-303.7 -25.41)"/><path class="cls-1" d="M844.85,744.89a10.15,10.15,0,0,0-2,2.71,7.72,7.72,0,0,0,2.12,2.34c2.59,2.17,3.27,2.08,5.91-.59l1.91-1.92-2.38-2.37a9.76,9.76,0,0,0-3-2.34A7.84,7.84,0,0,0,844.85,744.89Z" transform="translate(-303.7 -25.41)"/><path class="cls-1" d="M424.17,744a41.8,41.8,0,0,0-2,3.78L420.52,751l1.15,10c.68,5.48,1.27,10.28,1.4,10.62s.72-.43,1.53-2.13c1.19-2.5,1.31-3.27,1.48-7.77a102.51,102.51,0,0,0-1.1-16.82C424.72,743.74,424.55,743.57,424.17,744Z" transform="translate(-303.7 -25.41)"/><path class="cls-1" d="M636.57,744a41.8,41.8,0,0,0-2,3.78L632.92,751l1.15,10c.68,5.48,1.27,10.28,1.4,10.62s.72-.43,1.53-2.13c1.19-2.5,1.31-3.27,1.48-7.77a102.51,102.51,0,0,0-1.1-16.82C637.12,743.74,637,743.57,636.57,744Z" transform="translate(-303.7 -25.41)"/><path class="cls-1" d="M474.94,752c-1.58,1-2.68,2.55-4.17,5.69-1.7,3.61-1.61,4.17.43,2.3s3.61-2,5.14-.73l1,.77-3.61,1.7c-4.5,2.12-5.9,3.65-5.9,6.41,0,3.27,1.91,16,2.34,16,.25,0,.8-1.06,1.27-2.34.64-1.83.81-3.35.76-7.22,0-2.68-.12-5.35-.21-5.91-.13-.89.13-1.14,1.57-1.57a14.1,14.1,0,0,1,7.86,0,23.5,23.5,0,0,0,2.81.63c.51,0,2.5-6,2.25-6.71-.43-1.15-5.86-7.56-7.35-8.66C477.19,751,476.51,751,474.94,752Z" transform="translate(-303.7 -25.41)"/><path class="cls-1" d="M449,754.19a16,16,0,0,0-2.85,3.91,11.48,11.48,0,0,0-1.61,6.07c-.17,3,0,3.53.72,4.5,1,1.32,2.55,1.7,4.55,1.19a3,3,0,0,0,2.12-2.08c.81-1.82,1.62-1.87,1.19-.08s-2.63,4.54-5.61,6.75c-3.9,3-5.22,3.57-9.17,4.12l-3.44.51,3.61,1.19c4.71,1.53,9.17,1.7,10.92.43,1.91-1.41,3.73-4.46,5-8.5,2.25-6.88,1.44-14.91-1.83-18.18C451.23,752.62,450.72,752.62,449,754.19Zm1.66,7c1,1.57.51,2.42-1.36,2.25-2-.17-2.76-1.23-1.7-2.42S449.79,759.92,450.64,761.2Z" transform="translate(-303.7 -25.41)"/><path class="cls-1" d="M624.85,756.14l-1.53,3.32.85,1.4a13.72,13.72,0,0,1,1.23,2.67l.38,1.28h-19l-1.31-1.32c-1.75-1.74-2.3-4-1.83-7.39.76-5.65-1.61-1.1-3.1,5.95-.89,4.16-.43,6.45,1.7,8.58l1.4,1.4h22.6l.89-1.78c3.23-6.29,3.31-12.41.26-16.23l-1-1.19Z" transform="translate(-303.7 -25.41)"/><path class="cls-1" d="M649.83,754.32a11.9,11.9,0,0,0-6.89,9c-.34,2.55.51,3.74,3.1,4.46l2,.56-1.57,1.27c-1.44,1.15-3.23,3.91-3.23,5,0,.21.89-.26,2-1.1,3.27-2.51,7.94-4.42,10.79-4.42,1,0,1.4-.43,2.67-2.72a26.49,26.49,0,0,0,1.53-2.93,29.49,29.49,0,0,0-4.54-.43c-6.71-.38-9.26-1.36-7.39-2.89a3.47,3.47,0,0,1,4.63.26l1.27,1.06,1.32-2.12c1.57-2.55,1.61-3,.38-4.46C654.5,753.25,652.46,753.08,649.83,754.32Z" transform="translate(-303.7 -25.41)"/><path class="cls-1" d="M541.2,759c-1.35,1.74-2,3-2.12,4L539,764.6l-2.42.12-2.46.13V772h1.87a3.51,3.51,0,0,0,2.38-.64,1.7,1.7,0,0,1,.89-.63c.21,0,.38.29.38.63,0,.51.81.64,4.59.64,3,0,4.76-.17,5.1-.51s.63-.38,1,0,2,.51,4.41.51c3.32,0,3.95-.13,4.21-.76s.3-.68.81,0a2.51,2.51,0,0,0,2.12.76h1.53v-3.57c0-3.14-.09-3.61-.77-3.86-1.06-.3-1.65-1.66-2-4.72l-.3-2.46-1.15,1.36a8.85,8.85,0,0,0-2.34,4.88c-.25,1.62-.29,1.62-2,1.49-2-.13-2,.08-1.41-5.4.3-2.54.26-3.1-.21-2.93-1,.34-4.25,5.48-4,6.25a2,2,0,0,1-.3,1.44c-.47.64-1,.68-3.78.47l-3.27-.3.85-3a17.27,17.27,0,0,0,.68-4.08C543.2,756.61,543.07,756.7,541.2,759Z" transform="translate(-303.7 -25.41)"/><path class="cls-1" d="M332.12,776.79a7.25,7.25,0,0,0-1.53,2.29c0,.26.89,1.11,2,1.79l2,1.31,1.36-1.31,1.36-1.32,2.13,1.36a5.25,5.25,0,0,0,2.63,1.1,12.34,12.34,0,0,0,1.7-2.25l1.23-1.91-2.12-1.44a11.75,11.75,0,0,0-2.47-1.41,4,4,0,0,0-1.48,1.28,4.92,4.92,0,0,1-1.53,1.27,9,9,0,0,1-2.08-1.27l-1.74-1.23Z" transform="translate(-303.7 -25.41)"/><path class="cls-1" d="M574.42,814.09V829.8h3V798.37h-3Z" transform="translate(-303.7 -25.41)"/><path class="cls-1" d="M468.73,800.07c-3.73,2.29-4.41,7.73-1.4,11.17l1.23,1.32L467,814.38c-1.95,2.21-2.72,4.76-2.46,8.33.25,4.46,2.63,7.09,6.58,7.43,2.89.26,4.42-.42,6.46-2.76l1.65-1.82,1.58,2.12c1.44,2,1.65,2.12,3.44,2.12a3.86,3.86,0,0,0,1.87-.25,43.67,43.67,0,0,0-2.72-3.7l-2.68-3.48.6-1.7a25.2,25.2,0,0,0,.84-5.44l.26-3.69h-3.1v4a16,16,0,0,1-.3,4.21c-.21.12-1.57-1.45-3.1-3.45-1.66-2.16-2.55-3.69-2.25-3.78a8.2,8.2,0,0,0,3.4-3.22c1-1.87,1-5.78,0-7.27A6.29,6.29,0,0,0,468.73,800.07Zm5,2.63c2.21,2.42-.05,9.77-2.59,8.37s-3.36-7.43-1.07-9A3.22,3.22,0,0,1,473.75,802.7Zm0,16.06c4.08,5.18,3.95,4.88,3.1,6.16-1.44,2.21-4.93,3-6.92,1.65-2.26-1.57-3.15-5.9-2-9.21.68-1.83,1.95-3.44,2.38-3Z" transform="translate(-303.7 -25.41)"/><path class="cls-1" d="M713.33,799.9c-3.1,1.36-5.35,4.59-6.37,9.13-.76,3.36-.34,11.43.68,14.15,1,2.55,3.7,5.69,5.57,6.45a11.11,11.11,0,0,0,8.19-.38c5.53-2.89,7.82-13.17,5-22.3a11.09,11.09,0,0,0-5.65-6.93A10.48,10.48,0,0,0,713.33,799.9Zm7,3.61c2.34,1.4,3.66,4.76,3.91,9.64s-.38,8.24-2,10.83a6.07,6.07,0,0,1-9.77,1.07c-2-2-2.81-4.89-2.81-10.11,0-5.7.68-8.08,3-10.5,1.65-1.7,1.91-1.82,4-1.82A6.67,6.67,0,0,1,720.38,803.51Z" transform="translate(-303.7 -25.41)"/><path class="cls-1" d="M308.92,814.72V829.8h3V815.4l5.44-.12,5.39-.13.13-1.62L323,812H311.9V803h11.51l-.13-1.61-.12-1.57-7.1-.13-7.14-.09Z" transform="translate(-303.7 -25.41)"/><path class="cls-1" d="M367.55,814.68V829.8h3V818.89l2.93-.26c3.27-.25,4.8-.89,6.5-2.72s2.46-4,2.46-7.09-.46-4.67-2-6.33c-2-2-3.32-2.51-8.25-2.76l-4.58-.21Zm10.36-10c1.23,1.23,1.32,1.53,1.32,4.2,0,4.59-2,6.46-6.59,6.46h-2.12V802.91l3,.22C376.21,803.34,376.72,803.51,377.91,804.7Z" transform="translate(-303.7 -25.41)"/><path class="cls-1" d="M499.66,814.72v15.17l5-.17c4.33-.17,5.27-.34,7.14-1.32,4.54-2.29,6.8-7.52,6.46-14.91-.22-5-1.32-7.94-3.79-10.41s-4.5-3.06-10-3.31l-4.84-.25Zm9-11.21a9.68,9.68,0,0,1,5.69,5.39,17.37,17.37,0,0,1,.76,6.29c0,3.74-.17,4.55-1.1,6.37a9.91,9.91,0,0,1-2.85,3.32c-1.48,1.06-2.25,1.27-5.18,1.44l-3.4.21V803h2.25A16.86,16.86,0,0,1,508.71,803.51Z" transform="translate(-303.7 -25.41)"/><path class="cls-1" d="M799.14,801.55v1.92h3.4v-3.83h-3.4Z" transform="translate(-303.7 -25.41)"/><path class="cls-1" d="M851.82,801.55v1.92h3.4v-3.83h-3.4Z" transform="translate(-303.7 -25.41)"/><path class="cls-1" d="M685.3,804.1c0,3.1,0,3.19-1.07,3.19s-1.06.17-1.06,1.49.13,1.48,1.06,1.48h1.07v7.65c0,8.41.29,9.77,2.33,11.38a6.26,6.26,0,0,0,5.23.68c.76-.21.93-.55.93-2s-.13-1.66-.72-1.4c-1.87.8-2.63.72-3.7-.34s-1.1-1.15-1.1-8.58v-7.44h5.52v-3h-5.52v-6.37h-3Z" transform="translate(-303.7 -25.41)"/><path class="cls-1" d="M840.77,804.1c0,3.1,0,3.19-1.06,3.19s-1.06.17-1.06,1.49.13,1.48,1.06,1.48h1.06v7.65c0,8.41.3,9.77,2.34,11.38a6.24,6.24,0,0,0,5.22.68c.77-.21.94-.55.94-2s-.13-1.66-.72-1.4c-1.87.8-2.64.72-3.7-.34s-1.1-1.15-1.1-8.58v-7.44h5.52v-3h-5.52v-6.37h-3Z" transform="translate(-303.7 -25.41)"/><path class="cls-1" d="M329.53,807.37c-2.72,1.49-4.25,4-4.89,8.29-.81,5.27.47,10.32,3.36,13.08,1.1,1,1.74,1.28,4,1.4,3.44.22,5.06-.85,6.88-4.37,1.19-2.34,1.28-2.81,1.28-7.18s-.09-4.93-1.19-7.18c-1.57-3.19-3.53-4.55-6.46-4.55A8.2,8.2,0,0,0,329.53,807.37Zm4.88,3.11c1.79.93,2.76,3.82,2.76,8.28,0,5.48-1.82,8.49-5,8.49-2.8,0-4.5-3.22-4.54-8.49,0-4.55.51-6.46,2.16-7.82A3.71,3.71,0,0,1,334.41,810.48Z" transform="translate(-303.7 -25.41)"/><path class="cls-1" d="M388.53,807.63c-3.57,2.25-5.35,7.94-4.42,14,1.15,7.18,6.5,10.41,12.79,7.74l2.08-.9v-4.16l-1.91,1.36c-4.59,3.23-9.64.76-10.07-5l-.12-1.7,6.32-.13,6.33-.12-.29-3.06c-.39-3.53-1.36-6-3-7.52S390.44,806.44,388.53,807.63Zm6.12,3.14a11.76,11.76,0,0,1,1.78,5.1c0,.21-2.21.34-4.88.34h-4.84l.25-1.4c.64-3.36,2.29-5,5-5A3.33,3.33,0,0,1,394.65,810.77Z" transform="translate(-303.7 -25.41)"/><path class="cls-1" d="M404.42,807.37c-1.06.39-1.19.64-1.19,2.3v1.91l1.27-.68c1.83-.93,4.85-1.27,6.29-.68a3.88,3.88,0,0,1,2.21,3.65c0,.9-.25,1-2.42,1.32-6.42.76-8.75,2.93-8.75,8,0,2.85.76,4.76,2.5,6.12,1.92,1.48,5.74,1,7.35-1,.81-1,1.32-.85,1.32.38,0,.94.17,1.06,1.53,1.06H416l-.13-9.26c-.13-10.23-.3-11-2.85-12.7-1.19-.81-2-1-4.46-.93A15.82,15.82,0,0,0,404.42,807.37ZM413,821a12.12,12.12,0,0,1-.34,3.52,6.09,6.09,0,0,1-4.38,2.34c-2.37,0-3.35-1.15-3.35-3.78,0-1.83.17-2.25,1.27-3.19a6.88,6.88,0,0,1,2.89-1.31c.85-.17,1.79-.34,2-.43C412.79,817.53,413,817.82,413,821Z" transform="translate(-303.7 -25.41)"/><path class="cls-1" d="M424.68,807.46c-3.14,1.36-5.05,5.56-5,11.09,0,5.22,1.23,8.49,4,10.53,1.74,1.28,5.26,1.45,7.73.38l1.95-.89v-4.42l-1,.9c-1.44,1.35-4,2.29-5.43,2-1.79-.38-3.66-2.8-4-5.1-.42-3.1,0-7.94.89-9.47,1.7-2.84,4.93-3.31,7.9-1.1l1.45,1.06.13-1.57c.21-2.13-.09-2.59-1.87-3.36A10.25,10.25,0,0,0,424.68,807.46Z" transform="translate(-303.7 -25.41)"/><path class="cls-1" d="M439.93,807.63c-3.57,2.25-5.35,7.94-4.42,14,1.15,7.18,6.5,10.41,12.79,7.74l2.08-.9v-4.16l-1.91,1.36c-4.59,3.23-9.64.76-10.07-5l-.12-1.7,6.33-.13,6.32-.12-.29-3.06c-.38-3.53-1.36-6-3-7.52S441.84,806.44,439.93,807.63Zm6.12,3.14a11.76,11.76,0,0,1,1.78,5.1c0,.21-2.21.34-4.88.34h-4.84l.25-1.4c.64-3.36,2.29-5,5-5A3.33,3.33,0,0,1,446.05,810.77Z" transform="translate(-303.7 -25.41)"/><path class="cls-1" d="M525.74,807.63c-3.57,2.25-5.35,7.94-4.42,14,1.15,7.18,6.5,10.41,12.79,7.74l2.08-.9v-4.16l-1.91,1.36c-4.59,3.23-9.64.76-10.07-5l-.12-1.7,6.32-.13,6.33-.12-.29-3.06c-.39-3.53-1.36-6-3-7.52S527.65,806.44,525.74,807.63Zm6.12,3.14a11.76,11.76,0,0,1,1.78,5.1c0,.21-2.21.34-4.88.34h-4.84l.25-1.4c.64-3.36,2.29-5,5-5A3.33,3.33,0,0,1,531.86,810.77Z" transform="translate(-303.7 -25.41)"/><path class="cls-1" d="M560.15,807.63c-3.57,2.25-5.35,7.94-4.42,14,1.15,7.18,6.5,10.41,12.79,7.74l2.08-.9v-4.16l-1.91,1.36c-4.59,3.23-9.64.76-10.07-5l-.13-1.7,6.33-.13,6.33-.12-.29-3.06c-.39-3.53-1.36-6-3-7.52S562.06,806.44,560.15,807.63Zm6.12,3.14a11.76,11.76,0,0,1,1.78,5.1c0,.21-2.21.34-4.88.34h-4.85l.26-1.4c.64-3.36,2.29-5,5-5A3.33,3.33,0,0,1,566.27,810.77Z" transform="translate(-303.7 -25.41)"/><path class="cls-1" d="M586.53,807.37c-2.72,1.49-4.25,4-4.88,8.29-.81,5.27.46,10.32,3.35,13.08,1.11,1,1.74,1.28,4,1.4,3.45.22,5.06-.85,6.89-4.37,1.19-2.34,1.27-2.81,1.27-7.18s-.08-4.93-1.19-7.18c-1.57-3.19-3.52-4.55-6.46-4.55A8.29,8.29,0,0,0,586.53,807.37Zm4.89,3.11c1.78.93,2.76,3.82,2.76,8.28,0,5.48-1.83,8.49-5,8.49-2.8,0-4.5-3.22-4.54-8.49,0-4.55.51-6.46,2.17-7.82A3.71,3.71,0,0,1,591.42,810.48Z" transform="translate(-303.7 -25.41)"/><path class="cls-1" d="M606.45,807.67a5.92,5.92,0,0,0-1.61,1.28c-.51.8-1.11.51-1.11-.6,0-.93-.17-1.06-1.48-1.06h-1.49v30.58h3v-4.46c0-2.46.13-4.46.34-4.46a8.46,8.46,0,0,1,1.36.64c2.43,1.4,5.91.51,7.82-2,3.87-5,3.4-16.48-.85-19.79A5.65,5.65,0,0,0,606.45,807.67Zm4,3c1.36.72,2.17,3.52,2.17,7.69,0,6-1.49,8.45-5.1,8.45a6.07,6.07,0,0,1-2.89-.68c-.89-.59-.94-.93-.94-6.92s0-6.33,1-7.14C606.67,810.31,608.83,809.75,610.49,810.69Z" transform="translate(-303.7 -25.41)"/><path class="cls-1" d="M624.42,808.14c-1.78,1.53-2,1.57-2,.21,0-.93-.17-1.06-1.49-1.06h-1.49V829.8h3V812.9l1.48-1.32c1.79-1.53,3.61-1.74,4.89-.47.81.81.85,1.4.85,9.77v8.92h3V812.85l1.57-1.27c2.08-1.74,4-1.78,5.1-.17.64,1,.81,2.38.94,9.77l.12,8.62h3l-.17-9.26c-.13-8.54-.22-9.34-1.11-11-1.1-2.12-2-2.68-4.33-2.68-1.45,0-2,.3-3.48,1.66l-1.75,1.62-1.57-1.62c-1.31-1.4-1.82-1.66-3.31-1.66A4.11,4.11,0,0,0,624.42,808.14Z" transform="translate(-303.7 -25.41)"/><path class="cls-1" d="M651.48,807.63c-3.57,2.25-5.35,7.94-4.42,14,1.15,7.18,6.5,10.41,12.79,7.74l2.08-.9v-4.16L660,825.64c-4.59,3.23-9.64.76-10.07-5l-.12-1.7,6.32-.13,6.33-.12-.29-3.06c-.39-3.53-1.36-6-3-7.52S653.39,806.44,651.48,807.63Zm6.12,3.14a11.76,11.76,0,0,1,1.78,5.1c0,.21-2.21.34-4.88.34h-4.84l.25-1.4c.64-3.36,2.29-5,5-5A3.33,3.33,0,0,1,657.6,810.77Z" transform="translate(-303.7 -25.41)"/><path class="cls-1" d="M671.45,807.67a5.85,5.85,0,0,0-1.62,1.28c-.51.8-1.1.51-1.1-.6,0-.93-.17-1.06-1.49-1.06h-1.48V829.8h3v-17l1.78-1.27c2.25-1.66,4.21-1.7,5.4-.17.85,1.06.89,1.65.89,9.77v8.66h3v-9c0-7.86-.12-9.22-.8-10.75a7,7,0,0,0-1.79-2.47A6.1,6.1,0,0,0,671.45,807.67Z" transform="translate(-303.7 -25.41)"/><path class="cls-1" d="M747.74,807.16c-1.1.38-3,2.38-3.82,4-2,3.83-2,11,0,14.87s6.37,4.51,9.64,1.53l.94-.85v2c0,2.42-.85,4.59-2.17,5.52s-4,.89-6.33,0c-1-.34-1.87-.63-1.95-.63a4.48,4.48,0,0,0-.17,1.7c0,2.2,1,2.71,5.18,2.76,3.61,0,4.84-.6,6.59-3.15,1.52-2.25,1.82-5,1.82-16.61v-11h-1.44c-.81,0-1.53.21-1.62.51s-.46.3-1.19-.21A8.62,8.62,0,0,0,747.74,807.16Zm5.65,3.61,1.19.47-.13,6.37-.12,6.42-1.45,1a5.45,5.45,0,0,1-5.1.56c-1.36-.68-2.16-3.53-2.16-7.35C745.66,811.28,748.29,808.73,753.39,810.77Z" transform="translate(-303.7 -25.41)"/><path class="cls-1" d="M763.8,807.37c-1.06.39-1.19.64-1.19,2.3v1.91l1.27-.68c1.83-.93,4.85-1.27,6.29-.68a3.88,3.88,0,0,1,2.21,3.65c0,.9-.25,1-2.42,1.32-6.42.76-8.75,2.93-8.75,8,0,2.85.76,4.76,2.5,6.12,1.92,1.48,5.74,1,7.35-1,.81-1,1.32-.85,1.32.38,0,.94.17,1.06,1.53,1.06h1.49l-.13-9.26c-.13-10.23-.3-11-2.85-12.7-1.19-.81-2-1-4.46-.93A15.82,15.82,0,0,0,763.8,807.37Zm8.58,13.6a12.12,12.12,0,0,1-.34,3.52,6.09,6.09,0,0,1-4.38,2.34c-2.37,0-3.35-1.15-3.35-3.78,0-1.83.17-2.25,1.27-3.19a6.88,6.88,0,0,1,2.89-1.31c.85-.17,1.79-.34,2-.43C772.17,817.53,772.38,817.82,772.38,821Z" transform="translate(-303.7 -25.41)"/><path class="cls-1" d="M785.72,807.67A5.85,5.85,0,0,0,784.1,809c-.51.8-1.1.51-1.1-.6,0-.93-.17-1.06-1.49-1.06H780V829.8h3v-17l1.78-1.27c2.26-1.66,4.21-1.7,5.4-.17.85,1.06.89,1.65.89,9.77v8.66h3v-9c0-7.86-.12-9.22-.8-10.75a6.89,6.89,0,0,0-1.79-2.47A6.1,6.1,0,0,0,785.72,807.67Z" transform="translate(-303.7 -25.41)"/><path class="cls-1" d="M824.12,807.37c-1.06.39-1.19.64-1.19,2.3v1.91l1.28-.68c1.82-.93,4.84-1.27,6.28-.68a3.88,3.88,0,0,1,2.21,3.65c0,.9-.25,1-2.42,1.32-6.41.76-8.75,2.93-8.75,8,0,2.85.76,4.76,2.51,6.12,1.91,1.48,5.73,1,7.34-1,.81-1,1.32-.85,1.32.38,0,.94.17,1.06,1.53,1.06h1.49l-.13-9.26c-.13-10.23-.3-11-2.85-12.7-1.19-.81-2-1-4.46-.93A15.82,15.82,0,0,0,824.12,807.37ZM832.7,821a12.12,12.12,0,0,1-.34,3.52,6.08,6.08,0,0,1-4.37,2.34c-2.38,0-3.36-1.15-3.36-3.78,0-1.83.17-2.25,1.27-3.19a6.88,6.88,0,0,1,2.89-1.31c.85-.17,1.79-.34,2-.43C832.49,817.53,832.7,817.82,832.7,821Z" transform="translate(-303.7 -25.41)"/><path class="cls-1" d="M863.92,807.37c-2.71,1.49-4.24,4-4.88,8.29-.81,5.27.47,10.32,3.35,13.08,1.11,1,1.75,1.28,4,1.4,3.44.22,5.05-.85,6.88-4.37,1.19-2.34,1.27-2.81,1.27-7.18s-.08-4.93-1.19-7.18c-1.57-3.19-3.52-4.55-6.45-4.55A8.3,8.3,0,0,0,863.92,807.37Zm4.89,3.11c1.78.93,2.76,3.82,2.76,8.28,0,5.48-1.83,8.49-5,8.49-2.81,0-4.51-3.22-4.55-8.49,0-4.55.51-6.46,2.17-7.82A3.71,3.71,0,0,1,868.81,810.48Z" transform="translate(-303.7 -25.41)"/><path class="cls-1" d="M883.85,807.67a5.85,5.85,0,0,0-1.62,1.28c-.51.8-1.1.51-1.1-.6,0-.93-.17-1.06-1.49-1.06h-1.49V829.8h3v-17l1.78-1.27c2.25-1.66,4.21-1.7,5.4-.17.85,1.06.89,1.65.89,9.77v8.66h3v-9c0-7.86-.12-9.22-.8-10.75a7,7,0,0,0-1.79-2.47A6.1,6.1,0,0,0,883.85,807.67Z" transform="translate(-303.7 -25.41)"/><path class="cls-1" d="M343.76,818.55V829.8h3v-8c0-7.78,0-8,1-8.92a7.13,7.13,0,0,1,4.37-1.79c.94,0,1-.17,1-1.91s-.12-1.91-.85-1.91a6.45,6.45,0,0,0-4,2.08c-1.15,1.27-1.53,1.11-1.53-.59,0-1.41-.08-1.49-1.49-1.49h-1.48Z" transform="translate(-303.7 -25.41)"/><path class="cls-1" d="M538.32,807.71c0,.26,1.44,5.31,3.27,11.26l3.23,10.83h2.63l3.18-10.66c1.75-5.86,3.23-11,3.32-11.26.21-.93-2.76-.8-3.06.13-.13.43-1.19,4.21-2.34,8.37s-2.25,7.69-2.33,7.77c-.22.26-.77-1.53-3.32-10.62l-1.74-6.24h-1.4C539,807.29,538.32,807.5,538.32,807.71Z" transform="translate(-303.7 -25.41)"/><path class="cls-1" d="M731.17,818.55V829.8h3v-8c0-7.78,0-8,1-8.92a7.13,7.13,0,0,1,4.37-1.79c.94,0,1-.17,1-1.91s-.13-1.91-.85-1.91a6.42,6.42,0,0,0-4,2.08c-1.15,1.27-1.53,1.11-1.53-.59,0-1.41-.09-1.49-1.49-1.49h-1.49Z" transform="translate(-303.7 -25.41)"/><path class="cls-1" d="M799.14,818.55V829.8h3V807.29h-3Z" transform="translate(-303.7 -25.41)"/><path class="cls-1" d="M806.36,808.78v1.48h4.46a20.25,20.25,0,0,1,4.46.26c0,.12-2.08,3.86-4.67,8.28-3.48,6-4.67,8.45-4.67,9.56v1.44h13.17v-3h-4.68c-3,0-4.67-.17-4.67-.47s2.13-4.08,4.67-8.49c3.06-5.27,4.68-8.54,4.68-9.35v-1.23H806.36Z" transform="translate(-303.7 -25.41)"/><path class="cls-1" d="M851.82,818.55V829.8h3V807.29h-3Z" transform="translate(-303.7 -25.41)"/></svg>