<svg xmlns="http://www.w3.org/2000/svg" viewBox="0 0 588.73 182.24"><defs><style>.cls-1{fill:#093e6f;}.cls-2{fill:#3f3e3e;}</style></defs><g id="Layer_2" data-name="Layer 2"><g id="Layer_1-2" data-name="Layer 1"><path class="cls-1" d="M87.42,0A93.84,93.84,0,0,0,72.85,1.81a91.17,91.17,0,1,0,40.82,1A92.45,92.45,0,0,0,97.89.21C96.15.07,88.92-.06,87.42,0Zm9.07,10.65a80.82,80.82,0,0,1,74.84,71.47,71.67,71.67,0,0,1,.43,10.46,64.51,64.51,0,0,1-.62,9,80.49,80.49,0,0,1-18.89,42.07,109.26,109.26,0,0,1-9.19,9.06,80.25,80.25,0,0,1-44.18,18.59,117.43,117.43,0,0,1-15.24,0,80.86,80.86,0,0,1-72.12-68.65,63.72,63.72,0,0,1-.72-11.59,62.21,62.21,0,0,1,.72-11.59,80.71,80.71,0,0,1,75-68.86C88.26,10.53,94.81,10.56,96.49,10.68Z"/><path class="cls-1" d="M88,21.49l-2.52.18a69.86,69.86,0,0,0-63,57.49,68.5,68.5,0,0,0,0,24,69.87,69.87,0,0,0,58.34,57,60.14,60.14,0,0,0,10.33.7,61,61,0,0,0,13.45-1.25A69.74,69.74,0,0,0,97.73,21.72C95.81,21.54,89.42,21.39,88,21.49Zm9.34,10.19a59.92,59.92,0,1,1-20.28,1.41,65.52,65.52,0,0,1,11-1.66C89.75,31.32,95.49,31.48,97.36,31.68Z"/><path class="cls-1" d="M87.68,45.13a46.21,46.21,0,0,0-16.4,87.81,45.57,45.57,0,0,0,18.4,4.46,46.32,46.32,0,0,0,44.55-29.49,47.42,47.42,0,0,0,2.89-11.85,68,68,0,0,0,0-9.47A46.28,46.28,0,0,0,87.68,45.13Zm7.87,7.62a38.62,38.62,0,1,1-26.15,70.3A41.42,41.42,0,0,1,61,115.28,38.6,38.6,0,0,1,79,54.47,37.47,37.47,0,0,1,95.55,52.75Z"/><path class="cls-2" d="M220.88,98c-1.49,1.62-1.54,1.75-1,2.2a10.34,10.34,0,0,0,1.53.92l1,.56.91-.87.87-.85,1.48.85c1.67,1,1.7,1,3.08-.8l.78-1-1.61-1-1.62-1-.86.84a3.12,3.12,0,0,1-1.19.81,4.53,4.53,0,0,1-1.46-.76l-1.14-.79Z"/><path class="cls-2" d="M222.65,143.86v9.39h1.87v-9l3.39-.07,3.35-.09.09-1,.07-1H224.5v-5.61h7.18l-.09-1-.07-1-4.42-.08-4.45-.06Z"/><path class="cls-1" d="M235.22,31.12c-6.93,1-11.73,4-14,8.65a16.63,16.63,0,0,0-1.83,8.1c0,5.61,2.17,9.82,6.65,12.82,4,2.67,8.15,3.73,20.91,5.29,9.31,1.17,10.09,1.46,10.11,3.78,0,1.46-1.06,2.55-3.11,3.18s-9.61.66-12.77,0a31,31,0,0,1-19.77-13.55c-.23-.4-.32,2-.32,10.8,0,6.23,0,11.33.11,11.33s1.83-1,3.89-2.12l3.74-2.11,2.41,1c13.6,5.83,27,5.19,33.77-1.55,3.12-3.12,4.37-6.36,4.32-11.26a15.33,15.33,0,0,0-5.13-11.91c-3.66-3.36-8.24-4.71-21.42-6.35-10.46-1.3-12.52-2.06-12.52-4.63,0-2.31,2.11-3.42,7-3.63,8.65-.4,16.54,2.81,24.67,10.06l2,1.82V31.24l-4.1,2c-2.27,1.08-4.23,2-4.39,2a12.77,12.77,0,0,1-2-.9,33,33,0,0,0-8-2.67A54.51,54.51,0,0,0,235.22,31.12Z"/><path class="cls-1" d="M551.29,31.12c-6.94,1-11.73,4-14,8.65a16.62,16.62,0,0,0-1.82,8.1c0,5.61,2.17,9.82,6.64,12.82,4,2.67,8.16,3.73,20.91,5.29,9.35,1.17,10.09,1.46,10.12,3.78,0,1.46-1.06,2.55-3.12,3.18s-9.61.66-12.76,0a31,31,0,0,1-19.77-13.55c-.24-.4-.32,2-.32,10.8,0,6.23,0,11.33.11,11.33s1.82-1,3.88-2.12l3.74-2.11,2.41,1c13.61,5.83,27,5.19,33.78-1.55,3.11-3.12,4.36-6.36,4.32-11.26a15.37,15.37,0,0,0-5.14-11.91c-3.66-3.36-8.24-4.71-21.42-6.35-10.45-1.3-12.51-2.06-12.51-4.63,0-2.31,2.11-3.42,7-3.63C562,38.58,569.86,41.79,578,49l2,1.82V31.24l-4.1,2c-2.28,1.08-4.24,2-4.39,2a12.39,12.39,0,0,1-2-.9,33.25,33.25,0,0,0-8-2.67A54.55,54.55,0,0,0,551.29,31.12Z"/><path class="cls-1" d="M431.16,32.18a31.91,31.91,0,0,0-17.78,9.24,24.52,24.52,0,0,0-6.81,10.9,17.14,17.14,0,0,0-.62,5.77c0,3.36.08,3.92.77,5.82,1.87,5.41,5.42,9.59,11.38,13.32,9.93,6.27,25,6.75,34.7,1.14a22.53,22.53,0,0,0,6.7-6.85c2.33-4.43,2.54-10.33.48-12.9l-.63-.76-.15,1.72a11.4,11.4,0,0,1-4.82,8.33c-3.74,2.84-7.36,4-12.84,4.24-4.74.18-7.79-.32-10.78-1.77-3.25-1.62-5-3.87-6.08-7.94a33.42,33.42,0,0,1,.13-12c2-7.17,6.75-10.32,15-9.89a20.52,20.52,0,0,1,8.29,1.91A23.92,23.92,0,0,1,458.8,52.59l1,1.78V43.59c0-5.94-.08-10.78-.18-10.78a20.19,20.19,0,0,0-2.31,1.91c-1.19,1-2.4,2.14-2.72,2.4l-.59.53-1.67-1.08A30,30,0,0,0,431.16,32.18Z"/><path class="cls-1" d="M280,38.82l5.63,5.51V68.94l-5.6,5.49-5.61,5.47h38.07l-5.61-5.45L301.3,69V64.58h8.82c9.18,0,12-.19,15.21-1.06,4.16-1.14,8.1-3.89,9.67-6.85A15.37,15.37,0,0,0,334.84,43c-2.18-4.07-7.39-7.65-13.45-9.08-1.77-.42-4.08-.48-24.46-.55l-22.51-.06Zm35.74,3.64c2.65.79,4,3.11,4,6.75,0,2.27-.59,4.2-1.54,5.11-1.38,1.32-2.62,1.5-10.16,1.5h-6.86V42.08h6.56C313,42.08,314.72,42.16,315.77,42.46Z"/><path class="cls-1" d="M351.56,33.5c0,.08,1.57,2,3.47,4.26l3.47,4.11-6.28,13.57L346,69l-4.23,5.14-4.5,5.43c-.21.26,2.59.34,14,.34h14.27l-3-3.12c-1.67-1.69-3.74-3.84-4.61-4.73l-1.56-1.65.62-1.58.58-1.62h17.71l.66,1.46a12.4,12.4,0,0,1,.62,1.67c0,.1-2.33,2.27-5.18,4.81l-5.19,4.63,9.56.08h19.08l9.53-.08-5.66-5.29-5.67-5.29-6.09-13-6.43-13.71c-.29-.68-.19-.84,2.8-4.36,1.73-2,3.37-3.91,3.66-4.26l.53-.58h-17.9C359.64,33.34,351.56,33.42,351.56,33.5Zm17.31,19.85,2.76,6.06-5.43.09h-5.53c-.06,0,.92-2.47,2.17-5.38L365.49,48c.21-.5.42-.84.5-.77S367.37,50,368.87,53.35Z"/><path class="cls-1" d="M471.69,38.85l5.61,5.48V68.94l-5.61,5.49-5.64,5.47h60.74V68.69c0-6.2,0-11.25-.08-11.25s-2.8,3-6.14,6.62l-6.06,6.61H492.92V60.34h11.84l4.08,3.07,4.05,3.07L513,56.34c0-5.56,0-10.16-.05-10.21a35.71,35.71,0,0,0-4.1,2.4l-4,2.55H492.92V41H514.5l5.21,5.61c2.88,3.11,5.48,5.87,5.77,6.14l.53.47V33.3h-60Z"/><path class="cls-2" d="M501.2,98c-1.48,1.62-1.53,1.75-1,2.2a9.85,9.85,0,0,0,1.53.92l1,.56.9-.87.87-.85,1.48.85c1.67,1,1.7,1,3.07-.8l.77-1-1.61-1-1.62-1-.85.84a3,3,0,0,1-1.19.81,4.48,4.48,0,0,1-1.45-.76L502,97.18Z"/><path class="cls-2" d="M338.33,98.49a16.86,16.86,0,0,0-.32,3.33c0,2.07,0,2.28.69,3a9,9,0,0,0,2,1.45l1.3.72.29-.56c.29-.53.31-.53,1.11.45a16.66,16.66,0,0,1,2.36,4.42c.45,1.59-.85,2.76-6.52,5.85l-3.7,2,2.7-.16c3.55-.21,5.16-.56,7.07-1.56a7.82,7.82,0,0,0,3.89-5.08c.93-3,1-3,1.45,2.83l.16,2.06h11.33V113h-4.47a23.88,23.88,0,0,1-4.63-.24c-.09-.13-.4-2.91-.69-6.14-.74-8.34-.77-8.52-1.25-8.15-.89.76-1.24,2-1.42,5.16a12.59,12.59,0,0,1-.91,4.89,23.76,23.76,0,0,0-1.4,3.95c-.21.77-.27.5-.29-1.62a10.16,10.16,0,0,0-1.91-6.75,36.74,36.74,0,0,0-5.61-6l-1-.79Z"/><path class="cls-2" d="M414.67,98.49a4.62,4.62,0,0,1-1.3,1,5.82,5.82,0,0,1-1.51-.77L410.67,98l-1.11,1.29-1.09,1.25.85.62c1.83,1.35,2,1.37,3,.45l.91-.87,1.48.85a4.36,4.36,0,0,0,1.87.71,4.84,4.84,0,0,0,1.17-1.26l.82-1.19-1.43-1.19-1.4-1.24Z"/><path class="cls-2" d="M285.6,98.91a13.94,13.94,0,0,0-1.8,3.54,1.85,1.85,0,0,0,.5.88c.62.66,1.61,5.77,1.61,8.18v1.56l-2.43-.1a11.76,11.76,0,0,1-3.12-.45c-.62-.35-.62-.38-.42-3.39l.18-3-.89,1c-1.51,1.7-1.8,2.28-1.8,3.55,0,2.54.15,2.43-4,2.33-4.9-.11-4.88-.08-4.64-4L269,106l-.79.92c-1.43,1.59-1.87,2.44-1.87,3.71,0,2.49.13,2.38-3.87,2.38-3.18,0-3.6,0-4.08-.53a9.15,9.15,0,0,1-1.87-3.81c0-1-.69-1.54-1.8-1.33-2.06.38-3.74,1.75-5,4.13l-.73,1.39h-2.2c-2,0-2.28-.05-2.73-.62a1.59,1.59,0,0,1-.4-1.06,21.85,21.85,0,0,0,.32-2.67l.16-2.25-.82.8a5.73,5.73,0,0,0-2.06,4.23l-.16,1.77-3.74-.1c-2.67-.06-3.89-.19-4.31-.48-.7-.45-.83-1-1.94-7.41-.76-4.31-.92-5-1.14-4.74-.74.92-2.06,3.92-1.95,4.42s-.16.82-2.07,2.06a19.83,19.83,0,0,0-3,2.33,14,14,0,0,0-2,5.09l-.16.79,2.73.62a18.76,18.76,0,0,0,3.66.51c.79-.08,1-.25,1.45-1.19.84-1.78,1.11-1.87,1.43-.72a9.14,9.14,0,0,1,.29,1.38,2.11,2.11,0,0,0,.66,1c.63.66.71.66,5,.66h4.36l.66-1.22c.62-1.16.69-1.24.87-.62a3.78,3.78,0,0,0,.75,1.21c.48.56.79.63,3,.63,2.59,0,2.75-.08,3.2-1.46.16-.45.42-.77.59-.71s1.71,1,3.48,2a20,20,0,0,0,3.39,1.87,2.78,2.78,0,0,0,.56-1l.32-.8h8l.63-1.21.66-1.25.48,1a3.83,3.83,0,0,0,1,1.25,24.62,24.62,0,0,0,4.45.26h4l.62-1.19.62-1.19.53.85c.87,1.45,1.06,1.51,5.27,1.53h3.86l.42-1.14c.77-2,.9-3.57.63-6.69l-.24-3,1.32-1.78a11.62,11.62,0,0,0,1.35-2,5.61,5.61,0,0,0-1.56-1.13c-1.8-1.12-2.09-1.4-2.54-2.67l-.31-1ZM229,109.5a8.24,8.24,0,0,1,.21,1.57,21.63,21.63,0,0,1-3.58-.53c-.05-.05.34-.37.87-.69a5.27,5.27,0,0,0,1.38-1.24c.21-.35.51-.63.62-.63a3.9,3.9,0,0,1,.5,1.52Zm25.43,2.6c0,.79-.1.82-1.21.11s-1.14-1-.29-1.09,1.5.26,1.5,1Z"/><path class="cls-2" d="M384.57,100.13l-1.22,2.19.51,4.48c.29,2.49.53,4.9.53,5.34,0,.85,0,.88-1.2.88H382v2.12c0,2.09,0,2.11.67,2.11.5,0,.79-.26,1.3-1.24l.66-1.25v.95a2.12,2.12,0,0,0,.31,1.25c.22.21,1.62.31,4.61.31h4.29l.42-1.14c.77-2,.9-3.57.62-6.69l-.23-3,1.32-1.78a11.54,11.54,0,0,0,1.35-2,6.65,6.65,0,0,0-1.61-1.19c-1.62-1-2.63-2.17-2.63-3.15,0-.48-.05-.48-.52.13a16.39,16.39,0,0,0-2.12,4,1.85,1.85,0,0,0,.5.88c.62.66,1.62,5.77,1.62,8.15V113h-2.39c-2.27,0-2.4,0-2.62-.63-.13-.35-.56-3.74-.92-7.48s-.75-6.85-.77-6.93A14.37,14.37,0,0,0,384.57,100.13Z"/><path class="cls-2" d="M483.44,99.07a4.87,4.87,0,0,0-1.11,1.4,6.06,6.06,0,0,0,1.16,1.41c.8.76,1.3,1.08,1.54.92,1.09-.66,2.33-1.87,2.33-2.25a8.51,8.51,0,0,0-2.62-2.62A6.41,6.41,0,0,0,483.44,99.07Z"/><path class="cls-2" d="M548.56,99c-1.24,1.62-1.54,2.7-.95,3.58.32.5.62,2,.92,5a34.85,34.85,0,0,1,.35,4.68,1.09,1.09,0,0,1-.72.53c-.31.08-4.84.16-10,.16-9.08,0-9.5,0-10-.53a9.15,9.15,0,0,1-1.87-3.81c0-1-.69-1.54-1.8-1.33-2.06.38-3.7,1.75-5,4.13l-.74,1.39h-2.28a7.8,7.8,0,0,1-3-.36c-.8-.43-.88-.78-2-7.44-.77-4.32-.93-5-1.14-4.74a12.91,12.91,0,0,0-2,4.42c.11.5-.16.82-2.06,2.06a19.83,19.83,0,0,0-3,2.33,13.57,13.57,0,0,0-2,5.09l-.16.79,2.73.62a19.56,19.56,0,0,0,3.65.51c.79-.09,1-.25,1.45-1.2.85-1.77,1.12-1.86,1.43-.71a8.08,8.08,0,0,1,.3,1.38,2,2,0,0,0,.66,1c.62.63.81.66,3.52.66,3.11,0,3.2,0,3.67-1.45.17-.45.43-.77.59-.71s1.72,1,3.49,2A18.36,18.36,0,0,0,526,119a2.48,2.48,0,0,0,.55-.94l.32-.8h44.81l.62-1.22.66-1.24.48.95c.66,1.3,1.25,1.51,3.7,1.43l2.18-.08.62-1.06c.32-.58.62-1.16.69-1.32a9,9,0,0,1,3,.9c2.89,1.14,3,1.16,3.36.66a13.58,13.58,0,0,0,1.72-3.63,30.73,30.73,0,0,0-1.91-6.56c-1.48-1-5.55,2.3-6.85,5.45l-.62,1.51-1.57-.13c-2.49-.21-2.67-.5-2.46-4l.16-2.91-.82.92c-1.43,1.59-1.87,2.43-1.87,3.71,0,2.49.21,2.38-4.29,2.38-3.67,0-4,0-3.78-.48a2.21,2.21,0,0,0-.14-2.43c-.71-1.41-2.67-3.36-3.46-3.5-1.38-.21-5.16,1.41-9.69,4.16a5.9,5.9,0,0,1-1.13.62s.18-.74.39-1.53a14.45,14.45,0,0,0,.4-2.92c0-1.19.1-1.53.55-1.8a4.64,4.64,0,0,0,1.14-1.69l.62-1.38-1.24-.79a8.91,8.91,0,0,1-2-2.07L549.3,98ZM509.3,109.5a7.43,7.43,0,0,1,.22,1.56,20.62,20.62,0,0,1-3.58-.53c-.05,0,.35-.37.88-.68a5.45,5.45,0,0,0,1.37-1.25c.21-.34.5-.62.62-.62A3.83,3.83,0,0,1,509.3,109.5Zm75.41.66c.29.29.45,1.25.18,1.25a7.89,7.89,0,0,1-1-.46c-.74-.34-.87-.49-.66-.79a1.06,1.06,0,0,1,1.49,0l0,0Zm-24.78.71a5.78,5.78,0,0,1,1.54,1.33c.28.56.26.56-4.36.56-2.55,0-4.64-.06-4.64-.11a17,17,0,0,1,4.08-2.17,3.11,3.11,0,0,1,3.39.39Zm-35.79,1.25c0,.79-.1.82-1.21.11s-1.14-1-.3-1.09,1.52.24,1.52,1Z"/><path class="cls-2" d="M277.45,99.12a6.26,6.26,0,0,1-1.06.93,7.84,7.84,0,0,1-1.46-.85l-1.25-.85-1,1.11a4.69,4.69,0,0,0-1,1.38,7.17,7.17,0,0,0,2.78,1.87,2.65,2.65,0,0,0,1-.77l.76-.79,1.38.79a6.12,6.12,0,0,0,1.78.77c.21,0,.79-.56,1.24-1.25l.9-1.21-.62-.42c-.35-.25-1.06-.7-1.59-1l-1-.58Z"/><path class="cls-2" d="M444.27,99.65a5.34,5.34,0,0,0-1.12,2.38c0,.42.24,3.84.53,7.55s.53,7,.53,7.2c0,.42.38.47,4,.47,3.36,0,4-.08,4.41-.44s.46-.43.78,0,1.8.44,19.56.44h19.21l.27-.66a20.46,20.46,0,0,0,.56-3,10.56,10.56,0,0,0-.11-4.3c-1.4-6.79-3.84-8.36-7.31-4.6-1.51,1.64-2.49,3.84-2.3,5s.71,1.57,2.09,2.15a3.48,3.48,0,0,0,3.81-.74c.48-.43,1-.71,1-.63a5.47,5.47,0,0,1,.47,2.36c-.08.1-4.55.21-10,.21h-9.8l.16-.92a4.37,4.37,0,0,0-3.69-5,4.31,4.31,0,0,0-1.64.08c-1.64.37-2.8,1-6.16,3.41-2.33,1.7-3.12,2.12-3.87,2.12s-.92-.06-.77-.62c1-3.36,1.14-4.42.77-4.42-.55.05-2.35,2.7-2.49,3.74a2.62,2.62,0,0,1-.53,1.34,16,16,0,0,1-4.92.06,1.13,1.13,0,0,1-1-.74c-.08-.3-.32-3.07-.55-6.12s-.51-6.08-.63-6.75l-.18-1.16Zm43.89,7.17c.76,1,.68,1.17-.3,1.17s-1.8-.5-1.8-1c0-.31.74-.82,1.25-.84A2,2,0,0,1,488.16,106.82Zm-22.44,4.11c.87.45,1.77,1.35,1.77,1.74s-.85.35-4,.35a20.53,20.53,0,0,1-4-.21,16.07,16.07,0,0,1,3.74-2A4,4,0,0,1,465.72,110.93Z"/><path class="cls-2" d="M461.07,99.73l-1.5,1.53,1.24.93c2.33,1.75,2.2,1.75,3.89,0a8.65,8.65,0,0,0,1.48-1.77,16.16,16.16,0,0,0-3.39-2.2A11.78,11.78,0,0,0,461.07,99.73Z"/><path class="cls-2" d="M264.13,99.79c-1.62,1.8-1.67,2-.53,2.75.55.34,1.38.82,1.87,1.06l.82.45.93-1c.92-1,1.64-2.12,1.45-2.28-1.1-.72-2.24-1.38-3.41-2A5.09,5.09,0,0,0,264.13,99.79Z"/><path class="cls-2" d="M570.67,99.79c-1.62,1.8-1.67,2-.53,2.75.55.34,1.37.82,1.87,1.06l.82.45.93-1c.92-1,1.64-2.12,1.45-2.28s-3.29-2-3.42-2A5.27,5.27,0,0,0,570.67,99.79Z"/><path class="cls-2" d="M556.61,100.34a6.28,6.28,0,0,0-1.25,1.69,5,5,0,0,0,1.32,1.46c1.62,1.35,2,1.3,3.69-.37l1.19-1.19-1.49-1.48A5.92,5.92,0,0,0,558.2,99,4.92,4.92,0,0,0,556.61,100.34Z"/><path class="cls-2" d="M294.46,99.79a26.33,26.33,0,0,0-1.24,2.35l-1,2,.72,6.23c.42,3.42.79,6.41.87,6.62s.45-.27,1-1.33c.74-1.56.82-2,.92-4.84a64.45,64.45,0,0,0-.68-10.48C294.81,99.63,294.7,99.52,294.46,99.79Z"/><path class="cls-2" d="M426.82,99.79a26.43,26.43,0,0,0-1.25,2.35l-1,2,.72,6.23c.43,3.42.79,6.41.87,6.62s.45-.27,1-1.33c.74-1.56.81-2,.92-4.84a63.35,63.35,0,0,0-.69-10.48C427.16,99.63,427.09,99.52,426.82,99.79Z"/><path class="cls-2" d="M326.1,104.77c-1,.63-1.67,1.59-2.6,3.55-1.06,2.25-1,2.6.27,1.43s2.25-1.24,3.2-.45l.63.48-2.25,1.06c-2.81,1.32-3.68,2.27-3.68,4,0,2,1.19,10,1.46,10s.5-.66.79-1.46a11.81,11.81,0,0,0,.47-4.5c0-1.67-.07-3.33-.13-3.68-.08-.55.08-.71,1-1a8.87,8.87,0,0,1,4.9,0,13,13,0,0,0,1.75.39c.32,0,1.56-3.73,1.4-4.18a32,32,0,0,0-4.58-5.39C327.5,104.15,327.08,104.15,326.1,104.77Z"/><path class="cls-2" d="M309.94,106.14a9.88,9.88,0,0,0-1.78,2.43,7.13,7.13,0,0,0-1,3.79c-.11,1.87,0,2.2.45,2.8a2.48,2.48,0,0,0,2.83.74,1.87,1.87,0,0,0,1.32-1.29c.51-1.14,1-1.17.74,0s-1.64,2.83-3.49,4.2c-2.43,1.87-3.26,2.23-5.72,2.57l-2.14.32,2.25.74c2.93,1,5.71,1.06,6.8.27a10.71,10.71,0,0,0,3.12-5.3c1.4-4.29.9-9.29-1.14-11.33C311.33,105.16,311,105.16,309.94,106.14Zm1,4.36c.62,1,.32,1.51-.85,1.4s-1.72-.76-1.06-1.51a1.07,1.07,0,0,1,1.9.12Z"/><path class="cls-2" d="M419.52,107.35l-1,2.07.53.87a8.7,8.7,0,0,1,.77,1.67l.24.8H408.26l-.82-.83c-1.09-1.08-1.43-2.49-1.14-4.6.47-3.52-1-.69-1.93,3.71-.56,2.59-.27,4,1.06,5.34l.87.87h14.08l.56-1.1c2-3.92,2.06-7.74.16-10.12l-.62-.74Z"/><path class="cls-2" d="M435.08,106.22a7.41,7.41,0,0,0-4.29,5.61c-.21,1.59.32,2.33,1.93,2.78L434,115l-1,.8a6.25,6.25,0,0,0-2,3.11c0,.13.55-.16,1.24-.68a13.19,13.19,0,0,1,6.73-2.76c.62,0,.87-.27,1.66-1.69a17.61,17.61,0,0,0,.95-1.83,19.1,19.1,0,0,0-2.83-.27c-4.18-.23-5.77-.84-4.6-1.8A2.16,2.16,0,0,1,437,110l.8.67.82-1.33c1-1.58,1-1.87.23-2.77S436.72,105.45,435.08,106.22Z"/><path class="cls-2" d="M367.39,109.13a5.57,5.57,0,0,0-1.32,2.5l-.05,1-1.51.08-1.53.08v4.46h1.16a2.25,2.25,0,0,0,1.49-.4,1.06,1.06,0,0,1,.55-.4c.13,0,.24.18.24.4s.5.4,2.86.4c1.87,0,3-.11,3.18-.32a.37.37,0,0,1,.62,0,6.13,6.13,0,0,0,2.75.32c2.07,0,2.46-.09,2.62-.48s.19-.42.51,0a1.56,1.56,0,0,0,1.32.48h1V115c0-2-.06-2.25-.48-2.4-.66-.19-1-1-1.25-3l-.18-1.53-.72.85a5.56,5.56,0,0,0-1.46,3c-.15,1-.18,1-1.24.93-1.25-.08-1.25,0-.88-3.37.18-1.58.16-1.93-.13-1.82-.63.21-2.65,3.41-2.5,3.89a1.24,1.24,0,0,1-.18.9c-.3.4-.63.42-2.36.29l-2-.18.53-1.87a10.47,10.47,0,0,0,.43-2.55C368.64,107.65,368.56,107.7,367.39,109.13Z"/><path class="cls-2" d="M237.1,120.22a4.58,4.58,0,0,0-.95,1.43c0,.16.55.69,1.25,1.11l1.24.82.85-.82.85-.82,1.32.85a3.31,3.31,0,0,0,1.64.68,7.26,7.26,0,0,0,1.06-1.4l.77-1.19-1.32-.9a7.09,7.09,0,0,0-1.54-.87,2.35,2.35,0,0,0-.92.79,2.93,2.93,0,0,1-1,.79,5.52,5.52,0,0,1-1.29-.79l-1.09-.76Z"/><path class="cls-2" d="M388.09,143.46v9.79H390V133.67h-1.87Z"/><path class="cls-2" d="M322.23,134.73a4.65,4.65,0,0,0-.87,7l.76.82-1,1.13a6.57,6.57,0,0,0-1.53,5.2c.16,2.77,1.64,4.41,4.1,4.63a4.11,4.11,0,0,0,4-1.72l1-1.14,1,1.32c.9,1.25,1,1.32,2.14,1.32a2.33,2.33,0,0,0,1.17-.15,27.44,27.44,0,0,0-1.7-2.31l-1.67-2.17.38-1.06a16.06,16.06,0,0,0,.52-3.39l.16-2.3h-1.93v2.5a10,10,0,0,1-.19,2.62c-.13.08-1-.9-1.93-2.15s-1.59-2.3-1.4-2.35a5.13,5.13,0,0,0,2.12-2,5.74,5.74,0,0,0,0-4.53A3.92,3.92,0,0,0,322.23,134.73Zm3.12,1.64c1.37,1.5,0,6.08-1.62,5.21s-2.09-4.63-.66-5.61a2,2,0,0,1,2.29.4Zm0,10c2.54,3.23,2.46,3,1.93,3.84a3.34,3.34,0,0,1-4.31,1c-1.41-1-2-3.68-1.25-5.74.42-1.14,1.21-2.14,1.48-1.87Z"/><path class="cls-2" d="M474.65,134.62c-1.93.85-3.33,2.86-4,5.69a23.24,23.24,0,0,0,.43,8.82,8.41,8.41,0,0,0,3.47,4,6.92,6.92,0,0,0,5.1-.24c3.45-1.8,4.87-8.21,3.12-13.9a6.93,6.93,0,0,0-3.52-4.31A6.54,6.54,0,0,0,474.65,134.62Zm4.36,2.25c1.46.87,2.28,3,2.44,6s-.24,5.13-1.25,6.75A3.79,3.79,0,0,1,475,151a3.69,3.69,0,0,1-.92-.75c-1.25-1.24-1.76-3-1.76-6.3,0-3.55.43-5,1.87-6.54,1-1.06,1.19-1.13,2.5-1.13a4.11,4.11,0,0,1,2.32.55Z"/><path class="cls-2" d="M259.18,143.83v9.42h1.87v-6.8l1.83-.16c2-.15,3-.55,4.05-1.69a6,6,0,0,0,1.53-4.42c0-1.93-.29-2.91-1.25-3.94-1.24-1.25-2.07-1.57-5.14-1.72l-2.85-.14Zm6.46-6.23c.76.77.82,1,.82,2.62,0,2.86-1.25,4-4.11,4H261V136.5l1.87.13c1.68.14,2,.24,2.74,1Z"/><path class="cls-2" d="M341.5,143.86v9.45l3.12-.11c2.7-.1,3.28-.21,4.45-.82,2.83-1.43,4.24-4.69,4-9.29-.14-3.12-.83-5-2.37-6.49s-2.8-1.9-6.23-2.06l-3-.16Zm5.61-7a6,6,0,0,1,3.55,3.36,10.62,10.62,0,0,1,.47,3.92c0,2.33-.1,2.83-.68,4a6.22,6.22,0,0,1-1.78,2.07c-.92.66-1.4.79-3.23.89l-2.12.14V136.55h1.41a10.35,10.35,0,0,1,2.41.32Z"/><path class="cls-2" d="M528.12,135.65v1.2h2.12v-2.39h-2.12Z"/><path class="cls-2" d="M561,135.65v1.2h2.12v-2.39H561Z"/><path class="cls-2" d="M457.19,137.24c0,1.93,0,2-.67,2s-.66.1-.66.92.08.93.66.93h.67v4.76c0,5.24.18,6.09,1.45,7.1a3.94,3.94,0,0,0,3.26.42c.47-.13.58-.34.58-1.25s-.09-1-.45-.87c-1.17.5-1.64.45-2.31-.21s-.68-.72-.68-5.35v-4.63h3.44v-1.87H459v-4h-1.87Z"/><path class="cls-2" d="M554.07,137.24c0,1.93,0,2-.67,2s-.66.1-.66.92.09.93.66.93h.67v4.76c0,5.24.18,6.09,1.45,7.1a3.94,3.94,0,0,0,3.26.42c.48-.13.58-.34.58-1.25s-.08-1-.45-.87c-1.16.5-1.64.45-2.3-.21s-.69-.72-.69-5.35v-4.63h3.44v-1.87h-3.44v-4h-1.87Z"/><path class="cls-2" d="M235.49,139.28c-1.7.92-2.65,2.49-3.05,5.16-.5,3.29.29,6.43,2.1,8.15a3.14,3.14,0,0,0,2.49.88c2.14.13,3.15-.53,4.29-2.73.74-1.46.79-1.75.79-4.47s-.05-3.07-.74-4.48c-1-2-2.2-2.83-4-2.83A5.09,5.09,0,0,0,235.49,139.28Zm3,1.93c1.12.58,1.72,2.38,1.72,5.16,0,3.42-1.13,5.29-3.12,5.29-1.74,0-2.8-2-2.83-5.29,0-2.83.32-4,1.35-4.87A2.31,2.31,0,0,1,238.53,141.21Z"/><path class="cls-2" d="M272.25,139.44c-2.22,1.4-3.33,4.95-2.75,8.72.72,4.48,4.05,6.49,8,4.83l1.3-.57v-2.59l-1.19.85c-2.86,2-6,.47-6.28-3.12l-.07-1.06,3.93-.08,3.95-.07-.18-1.91c-.24-2.2-.85-3.74-1.87-4.68A4.88,4.88,0,0,0,272.25,139.44Zm3.82,1.95a7.39,7.39,0,0,1,1.11,3.18,10.66,10.66,0,0,1-3,.21h-3l.16-.87c.39-2.09,1.42-3.11,3.11-3.11A2.06,2.06,0,0,1,276.07,141.39Z"/><path class="cls-2" d="M282.16,139.28c-.66.24-.75.4-.75,1.43v1.19l.8-.42a5.8,5.8,0,0,1,3.92-.43,2.42,2.42,0,0,1,1.37,2.28c0,.56-.15.62-1.51.82-4,.47-5.45,1.83-5.45,5A4.43,4.43,0,0,0,282.1,153a3.68,3.68,0,0,0,4.58-.63c.5-.62.82-.52.82.24,0,.59.11.66,1,.66h.91l-.08-5.77c-.08-6.37-.19-6.85-1.77-7.91a3.83,3.83,0,0,0-2.78-.58A9.76,9.76,0,0,0,282.16,139.28Zm5.34,8.49a7.31,7.31,0,0,1-.21,2.19,3.74,3.74,0,0,1-2.73,1.46c-1.48,0-2.09-.72-2.09-2.35,0-1.14.11-1.41.8-2a4.23,4.23,0,0,1,1.8-.82,11,11,0,0,0,1.24-.27C287.37,145.61,287.5,145.79,287.5,147.77Z"/><path class="cls-2" d="M294.78,139.33c-2,.85-3.15,3.47-3.11,6.91,0,3.26.76,5.29,2.49,6.56A5.45,5.45,0,0,0,299,153l1.22-.55v-2.76l-.62.56a4.72,4.72,0,0,1-3.39,1.25,4,4,0,0,1-2.49-3.18c-.26-1.93,0-5,.56-5.9,1.05-1.77,3.07-2.06,4.92-.68l.9.66.08-1c.13-1.33,0-1.62-1.16-2.1A6.46,6.46,0,0,0,294.78,139.33Z"/><path class="cls-2" d="M304.28,139.44c-2.22,1.4-3.33,4.95-2.75,8.72.72,4.48,4.05,6.49,8,4.83l1.3-.57v-2.59l-1.19.85c-2.86,2-6,.47-6.28-3.12l-.07-1.06,3.94-.08,3.94-.07-.18-1.91c-.24-2.2-.85-3.74-1.87-4.68A4.88,4.88,0,0,0,304.28,139.44Zm3.82,1.95a7.39,7.39,0,0,1,1.11,3.18,10.66,10.66,0,0,1-3,.21h-3l.16-.87c.39-2.09,1.42-3.11,3.11-3.11A2.06,2.06,0,0,1,308.1,141.39Z"/><path class="cls-2" d="M357.76,139.44c-2.23,1.4-3.34,4.95-2.76,8.72.72,4.48,4.05,6.49,8,4.83l1.3-.57v-2.59l-1.19.85c-2.86,2-6,.47-6.28-3.12l-.07-1.06,3.94-.08,3.94-.07-.18-1.91c-.24-2.2-.85-3.74-1.87-4.68A4.86,4.86,0,0,0,357.76,139.44Zm3.81,1.95a7.39,7.39,0,0,1,1.11,3.18,10.66,10.66,0,0,1-3,.21h-3l.16-.87c.4-2.09,1.42-3.11,3.11-3.11A2.06,2.06,0,0,1,361.57,141.39Z"/><path class="cls-2" d="M379.2,139.44c-2.23,1.4-3.34,4.95-2.76,8.72.72,4.48,4.05,6.49,8,4.83l1.3-.57v-2.59l-1.19.85c-2.86,2-6,.47-6.27-3.12l-.09-1.06,3.95-.08,3.94-.07-.18-1.91c-.24-2.2-.84-3.74-1.87-4.68A4.86,4.86,0,0,0,379.2,139.44Zm3.81,1.95a7.39,7.39,0,0,1,1.11,3.18,10.66,10.66,0,0,1-3,.21h-3l.16-.87c.4-2.09,1.43-3.11,3.12-3.11A2,2,0,0,1,383,141.39Z"/><path class="cls-2" d="M395.64,139.28c-1.7.92-2.65,2.49-3,5.16-.51,3.29.28,6.43,2.08,8.15a3.19,3.19,0,0,0,2.5.88c2.15.13,3.15-.53,4.29-2.73.74-1.46.79-1.75.79-4.47s-.05-3.07-.74-4.48c-1-2-2.19-2.83-4-2.83A5.08,5.08,0,0,0,395.64,139.28Zm3,1.93c1.11.58,1.72,2.38,1.72,5.16,0,3.42-1.14,5.29-3.11,5.29-1.75,0-2.81-2-2.83-5.29,0-2.83.32-4,1.35-4.87a2.33,2.33,0,0,1,2.87-.29Z"/><path class="cls-2" d="M408.05,139.46a3.71,3.71,0,0,0-1,.8c-.32.5-.69.32-.69-.37s-.11-.66-.93-.66h-.93v19.05h1.87V155.5a8.38,8.38,0,0,1,.22-2.78,5.38,5.38,0,0,1,.84.4,3.91,3.91,0,0,0,4.88-1.24c2.41-3.12,2.11-10.27-.53-12.34A3.55,3.55,0,0,0,408.05,139.46Zm2.49,1.87c.85.45,1.35,2.2,1.35,4.79,0,3.74-.92,5.27-3.17,5.27a3.84,3.84,0,0,1-1.8-.42c-.56-.37-.59-.58-.59-4.32s0-3.94.62-4.44c1.24-1.1,2.58-1.45,3.62-.86Z"/><path class="cls-2" d="M419.25,139.76c-1.11,1-1.25,1-1.25.13,0-.58-.1-.66-.93-.66h-.93v14H418V142.72l.93-.82c1.11-1,2.25-1.08,3-.29.51.5.53.87.53,6.09v5.55h1.87V142.69l1-.79c1.3-1.08,2.49-1.11,3.18-.11.4.63.5,1.49.58,6.09l.08,5.37h1.87l-.11-5.77c-.08-5.32-.13-5.82-.69-6.85a2.48,2.48,0,0,0-2.7-1.67c-.9,0-1.24.19-2.17,1l-1.09,1-1-1c-.82-.87-1.14-1-2.07-1A2.52,2.52,0,0,0,419.25,139.76Z"/><path class="cls-2" d="M436.11,139.44c-2.22,1.4-3.33,4.95-2.75,8.72.71,4.48,4.05,6.49,8,4.83l1.29-.57v-2.59l-1.2.83c-2.86,2-6,.47-6.28-3.11l-.07-1.06,3.94-.08,3.94-.08-.18-1.91c-.24-2.2-.85-3.74-1.87-4.68A4.84,4.84,0,0,0,436.11,139.44Zm3.81,1.95a7.14,7.14,0,0,1,1.11,3.18,10.61,10.61,0,0,1-3,.21h-3l.15-.87c.4-2.09,1.43-3.11,3.12-3.11A2,2,0,0,1,439.92,141.39Z"/><path class="cls-2" d="M448.55,139.46a3.71,3.71,0,0,0-1,.8c-.32.5-.69.32-.69-.37s-.11-.66-.93-.66H445v14h1.87V142.66l1.11-.79c1.4-1,2.62-1.06,3.36-.11.53.66.56,1,.56,6.09v5.4h1.87v-5.61c0-4.9-.08-5.75-.5-6.7a4.49,4.49,0,0,0-1.12-1.54A3.82,3.82,0,0,0,448.55,139.46Z"/><path class="cls-2" d="M496.09,139.15a6,6,0,0,0-2.38,2.49,12,12,0,0,0,0,9.26,3.66,3.66,0,0,0,6,1l.59-.53v1.24A4.26,4.26,0,0,1,499,156a4.69,4.69,0,0,1-3.94,0c-.62-.21-1.17-.39-1.22-.39a2.9,2.9,0,0,0-.1,1.06c0,1.37.62,1.69,3.23,1.72,2.25,0,3-.37,4.1-2,1-1.4,1.14-3.12,1.14-10.35v-6.86h-.9c-.5,0-.95.13-1,.32s-.29.19-.74-.13A5.36,5.36,0,0,0,496.09,139.15Zm3.53,2.24.74.3-.08,4-.08,4-.9.62a3.4,3.4,0,0,1-3.18.35c-.85-.42-1.35-2.2-1.35-4.58,0-4.34,1.67-5.93,4.85-4.66Z"/><path class="cls-2" d="M506.1,139.28c-.66.24-.74.4-.74,1.43v1.19l.79-.42a5.8,5.8,0,0,1,3.92-.43,2.44,2.44,0,0,1,1.38,2.28c0,.56-.16.62-1.51.82-4,.47-5.45,1.83-5.45,5a4.4,4.4,0,0,0,1.56,3.82,3.68,3.68,0,0,0,4.58-.63c.5-.62.82-.52.82.24,0,.59.1.66.95.66h.93l-.08-5.77c-.08-6.37-.19-6.85-1.78-7.91a3.8,3.8,0,0,0-2.78-.58A9.88,9.88,0,0,0,506.1,139.28Zm5.35,8.47a7.65,7.65,0,0,1-.21,2.19,3.76,3.76,0,0,1-2.73,1.46c-1.48,0-2.09-.71-2.09-2.35,0-1.14.11-1.4.79-2a4.34,4.34,0,0,1,1.8-.82c.53-.1,1.12-.21,1.25-.26,1.06-.37,1.19-.19,1.19,1.79Z"/><path class="cls-2" d="M519.76,139.46a4,4,0,0,0-1,.83c-.32.5-.68.32-.68-.37s-.11-.66-.93-.66h-.94v14h1.87V142.66l1.11-.79c1.4-1,2.62-1.06,3.36-.11.53.66.56,1,.56,6.09v5.4H525v-5.61c0-4.9-.07-5.75-.49-6.7a4.4,4.4,0,0,0-1.12-1.54A3.81,3.81,0,0,0,519.76,139.46Z"/><path class="cls-2" d="M543.69,139.28c-.66.24-.74.4-.74,1.43v1.19l.8-.42a5.76,5.76,0,0,1,3.91-.43,2.44,2.44,0,0,1,1.38,2.28c0,.56-.16.62-1.51.82-4,.47-5.45,1.83-5.45,5a4.4,4.4,0,0,0,1.56,3.82,3.67,3.67,0,0,0,4.57-.63c.51-.62.83-.52.83.24,0,.59.1.66,1,.66h.93l-.08-5.77c-.08-6.37-.19-6.85-1.78-7.91a3.8,3.8,0,0,0-2.78-.58A9.88,9.88,0,0,0,543.69,139.28Zm5.35,8.49a7.66,7.66,0,0,1-.22,2.19,3.77,3.77,0,0,1-2.72,1.46c-1.48,0-2.09-.72-2.09-2.35,0-1.14.1-1.41.79-2a4.28,4.28,0,0,1,1.8-.82,11.37,11.37,0,0,0,1.25-.27C548.91,145.61,549,145.79,549,147.77Z"/><path class="cls-2" d="M568.49,139.28c-1.69.92-2.64,2.49-3,5.16-.5,3.29.29,6.43,2.09,8.15a3.17,3.17,0,0,0,2.49.88c2.14.13,3.15-.53,4.29-2.73.74-1.46.79-1.75.79-4.47s-.05-3.07-.74-4.48c-1-2-2.2-2.83-4-2.83A5.13,5.13,0,0,0,568.49,139.28Zm3,1.93c1.11.58,1.72,2.38,1.72,5.16,0,3.42-1.14,5.29-3.12,5.29-1.75,0-2.81-2-2.83-5.29,0-2.83.32-4,1.35-4.87A2.31,2.31,0,0,1,571.54,141.21Z"/><path class="cls-2" d="M580.91,139.46a3.92,3.92,0,0,0-1,.8c-.32.5-.68.32-.68-.37s-.11-.66-.93-.66h-.93v14h1.87V142.66l1.11-.79c1.4-1,2.62-1.06,3.36-.11.53.66.56,1,.56,6.09v5.4h1.87v-5.61c0-4.9-.08-5.75-.5-6.7a4.49,4.49,0,0,0-1.12-1.54A3.83,3.83,0,0,0,580.91,139.46Z"/><path class="cls-2" d="M244.36,146.24v7h1.87v-5c0-4.85,0-5,.62-5.56a4.47,4.47,0,0,1,2.72-1.12c.59,0,.63-.1.63-1.19s-.08-1.19-.53-1.19a4,4,0,0,0-2.5,1.3c-.71.79-.95.69-.95-.37,0-.88-.05-.93-.93-.93h-.92Z"/><path class="cls-2" d="M365.6,139.49c0,.16.89,3.31,2,7l2,6.75h1.63l2-6.64c1.09-3.65,2-6.85,2.07-7,.13-.58-1.72-.49-1.91.09-.08.26-.74,2.62-1.46,5.21s-1.4,4.79-1.45,4.84-.48-.95-2.07-6.62l-1.08-3.88h-.88C366,139.23,365.6,139.36,365.6,139.49Z"/><path class="cls-2" d="M485.77,146.24v7h1.87v-5c0-4.85,0-5,.62-5.56a4.52,4.52,0,0,1,2.72-1.12c.59,0,.63-.1.63-1.19s-.08-1.19-.53-1.19a4,4,0,0,0-2.49,1.3c-.72.79-1,.69-1-.37,0-.88-.05-.93-.93-.93h-.93Z"/><path class="cls-2" d="M528.12,146.24v7H530v-14h-1.87Z"/><path class="cls-2" d="M532.62,140.15v.93h2.78a12.33,12.33,0,0,1,2.78.16c0,.07-1.29,2.4-2.91,5.16-2.17,3.74-2.91,5.26-2.91,6v.89h8.21v-1.87h-2.92c-1.87,0-2.91-.1-2.91-.29s1.33-2.54,2.91-5.29c1.91-3.28,2.92-5.32,2.92-5.83v-.76h-8Z"/><path class="cls-2" d="M561,146.24v7h1.87v-14H561Z"/></g></g></svg>