<?xml version="1.0" encoding="iso-8859-1"?>
<!-- Generator: Adobe Illustrator 18.0.0, SVG Export Plug-In . SVG Version: 6.00 Build 0)  -->
<!DOCTYPE svg PUBLIC "-//W3C//DTD SVG 1.1//EN" "http://www.w3.org/Graphics/SVG/1.1/DTD/svg11.dtd">
<svg version="1.1" id="Capa_1" xmlns="http://www.w3.org/2000/svg" xmlns:xlink="http://www.w3.org/1999/xlink" x="0px" y="0px"
	 viewBox="0 0 297 297" style="enable-background:new 0 0 297 297;" xml:space="preserve">
<g>
	<path d="M172.096,196.637h-13.529v-13.529c0-5.56-4.508-10.068-10.068-10.068s-10.068,4.508-10.068,10.068v13.529h-13.529
		c-5.56,0-10.068,4.508-10.068,10.068c0,5.56,4.508,10.068,10.068,10.068h13.529v13.529c0,5.56,4.508,10.068,10.068,10.068
		s10.068-4.508,10.068-10.068v-13.529h13.529c5.56,0,10.068-4.508,10.068-10.068C182.164,201.145,177.656,196.637,172.096,196.637z"
		/>
	<path d="M251.974,51.912h-24.19V37.509C227.784,16.826,210.958,0,190.274,0h-83.549C86.042,0,69.216,16.826,69.216,37.509v14.403
		h-24.19C20.199,51.912,0,72.111,0,96.938v156.434C0,277.429,19.571,297,43.627,297h209.745C277.429,297,297,277.429,297,253.372
		V96.938C297,72.111,276.801,51.912,251.974,51.912z M89.352,37.509c0-9.58,7.794-17.374,17.374-17.374h83.549
		c9.58,0,17.374,7.794,17.374,17.374v14.403H89.352V37.509z M45.026,72.048h206.948c13.724,0,24.89,11.166,24.89,24.89v6.886H20.136
		v-6.886C20.136,83.214,31.302,72.048,45.026,72.048z M210.48,123.96h14.472v14.472H210.48V123.96z M72.048,123.96H86.52v14.472
		H72.048V123.96z M276.864,253.372c0,12.953-10.539,23.492-23.492,23.492H43.627c-12.953,0-23.491-10.539-23.491-23.492V123.96
		h31.776v24.54c0,5.56,4.508,10.068,10.068,10.068h34.608c5.56,0,10.068-4.508,10.068-10.068v-24.54h83.689v24.54
		c0,5.56,4.508,10.068,10.068,10.068h34.608c5.56,0,10.068-4.508,10.068-10.068v-24.54h31.776V253.372z"/>
</g>
<g>
</g>
<g>
</g>
<g>
</g>
<g>
</g>
<g>
</g>
<g>
</g>
<g>
</g>
<g>
</g>
<g>
</g>
<g>
</g>
<g>
</g>
<g>
</g>
<g>
</g>
<g>
</g>
<g>
</g>
</svg>
