<?xml version="1.0" encoding="iso-8859-1"?>
<!-- Generator: Adobe Illustrator 19.0.0, SVG Export Plug-In . SVG Version: 6.00 Build 0)  -->
<svg version="1.1" id="Layer_1" xmlns="http://www.w3.org/2000/svg" xmlns:xlink="http://www.w3.org/1999/xlink" x="0px" y="0px"
	 viewBox="0 0 511.999 511.999" style="enable-background:new 0 0 511.999 511.999;" xml:space="preserve">
<g>
	<g>
		<path d="M286.396,60.847l-23.184-23.184c-3.983-3.983-10.441-3.983-14.425,0l-23.185,23.184
			c-18.676,18.677-28.962,43.508-28.962,69.92s10.286,51.243,28.962,69.919l23.184,23.185c1.912,1.912,4.507,2.987,7.212,2.987
			c2.705,0,5.299-1.075,7.212-2.987l23.184-23.184c18.678-18.677,28.964-43.508,28.964-69.92S305.071,79.524,286.396,60.847z
			 M271.971,186.262l-5.773,5.774v-50.52c0-5.633-4.566-10.199-10.199-10.199c-5.633,0-10.199,4.566-10.199,10.199v50.52
			l-5.774-5.774c-14.824-14.823-22.987-34.531-22.987-55.495s8.163-40.671,22.988-55.495l15.972-15.973l15.972,15.973
			c14.823,14.823,22.988,34.531,22.988,55.495S286.795,171.438,271.971,186.262z"/>
	</g>
</g>
<g>
	<g>
		<path d="M255.999,88.826c-5.633,0-10.199,4.566-10.199,10.199v5.83c0,5.633,4.566,10.199,10.199,10.199
			c5.633,0,10.199-4.566,10.199-10.199v-5.83C266.198,93.392,261.632,88.826,255.999,88.826z"/>
	</g>
</g>
<g>
	<g>
		<path d="M233.096,382.356h-8.948l0.014-28.633c0.007-18.753-3.341-36.802-9.955-53.655l-0.113-0.289
			c-0.058-0.146-0.118-0.291-0.183-0.434l-62.382-139.18c-6.71-17.928-25.291-28.103-43.571-24.819l0.542-96.017
			C108.592,17.736,91.104,0.094,69.515,0c-0.06,0-0.118,0-0.178,0c-10.392-0.001-20.175,4.026-27.56,11.347
			c-7.428,7.363-11.544,17.179-11.59,27.638c0,0.045,0,0.089,0,0.134l0.778,89.222c0.196,30.361,6.414,59.883,18.481,87.746
			l60.141,138.858c0.059,0.136,0.12,0.27,0.186,0.404c3.612,7.434,5.977,14.832,7.034,22.002v5.008H77.422
			c-5.633,0-10.199,4.566-10.199,10.199V501.8c0,5.633,4.566,10.199,10.199,10.199h155.674c5.633,0,10.199-4.566,10.199-10.199
			V392.555C243.295,386.922,238.729,382.356,233.096,382.356z M68.163,207.978c-10.97-25.331-16.623-52.17-16.801-79.794
			l-0.778-89.171c0.038-4.988,2.008-9.667,5.552-13.18c3.538-3.506,8.224-5.435,13.203-5.435c0.028,0,0.057,0,0.085,0
			c10.342,0.045,18.72,8.497,18.676,18.828l-0.603,106.969c-9.752,9.913-13.866,24.675-9.578,38.815
			c0.122,0.402,0.268,0.796,0.439,1.179l37.124,83.614c1.689,3.803,5.419,6.062,9.327,6.062c1.383,0,2.787-0.283,4.134-0.88
			c5.148-2.286,7.469-8.312,5.183-13.461l-36.842-82.977c-2.49-9.183,2.338-18.778,11.193-22.293
			c9.718-3.514,20.489,1.525,24.015,11.243c0.085,0.235,0.179,0.466,0.28,0.694l62.426,139.279l0.025,0.062
			c5.674,14.455,8.547,29.994,8.542,46.183l-0.014,28.642h-66.545v-5.729c-0.001-0.462-0.033-0.924-0.096-1.381
			c-1.29-9.448-4.282-19.072-8.892-28.61L68.163,207.978z M222.896,491.601H87.621v-46.969h135.275V491.601z M222.896,424.234
			H87.621v-21.48h135.275V424.234z"/>
	</g>
</g>
<g>
	<g>
		<path d="M470.223,11.348c-7.429-7.364-17.316-11.413-27.738-11.347c-21.59,0.094-39.078,17.736-38.985,39.341l0.542,96.004
			c-18.284-3.285-36.861,6.891-43.571,24.819l-62.382,139.18c-0.064,0.143-0.125,0.288-0.183,0.435l-0.117,0.299
			c-6.61,16.843-9.959,34.89-9.951,53.646l0.015,28.632h-8.949c-5.633,0-10.199,4.566-10.199,10.199V501.8
			c0,5.633,4.566,10.199,10.199,10.199h155.673c5.633,0,10.199-4.566,10.199-10.199V392.555c0-5.633-4.566-10.199-10.199-10.199
			h-39.384v-5.009c1.059-7.169,3.423-14.568,7.034-22.001c0.064-0.133,0.126-0.267,0.186-0.403l60.141-138.858
			c12.068-27.863,18.285-57.385,18.481-87.722l0.779-89.244c0-0.045,0-0.089,0-0.134C481.768,28.526,477.651,18.711,470.223,11.348z
			 M424.378,491.601H289.102v-46.969h135.276V491.601z M424.378,402.754v21.48H289.102v-21.48H424.378z M460.636,128.207
			c-0.177,27.601-5.83,54.44-16.801,79.771l-60.055,138.66c-4.61,9.537-7.601,19.161-8.892,28.608
			c-0.062,0.458-0.094,0.919-0.094,1.381v5.729H308.25l-0.014-28.641c-0.006-16.19,2.868-31.728,8.538-46.173l62.455-139.352
			c0.102-0.227,0.196-0.459,0.281-0.694c3.524-9.718,14.293-14.757,24.013-11.244c8.856,3.516,13.685,13.11,11.195,22.294
			l-36.842,82.977c-2.286,5.149,0.035,11.175,5.183,13.461c1.345,0.598,2.751,0.88,4.134,0.88c3.909,0,7.639-2.26,9.327-6.062
			l37.124-83.614c0.17-0.383,0.317-0.777,0.439-1.179c4.288-14.139,0.174-28.903-9.578-38.815l-0.605-106.955
			c-0.045-10.344,8.333-18.796,18.677-18.841c0.029,0,0.057,0,0.085,0c4.978,0,9.665,1.929,13.203,5.436
			c3.544,3.514,5.515,8.192,5.551,13.18L460.636,128.207z"/>
	</g>
</g>
<g>
	<g>
		<path d="M379.288,283.476c-5.15-2.285-11.175,0.035-13.461,5.182l-0.883,1.99c-2.286,5.149,0.035,11.175,5.182,13.461
			c1.345,0.597,2.751,0.88,4.134,0.88c3.909,0,7.638-2.26,9.327-6.062l0.883-1.99C386.756,291.789,384.435,285.762,379.288,283.476z
			"/>
	</g>
</g>
<g>
</g>
<g>
</g>
<g>
</g>
<g>
</g>
<g>
</g>
<g>
</g>
<g>
</g>
<g>
</g>
<g>
</g>
<g>
</g>
<g>
</g>
<g>
</g>
<g>
</g>
<g>
</g>
<g>
</g>
</svg>
