<?xml version="1.0" encoding="iso-8859-1"?>
<!-- Generator: Adobe Illustrator 19.0.0, SVG Export Plug-In . SVG Version: 6.00 Build 0)  -->
<svg version="1.1" id="Layer_1" xmlns="http://www.w3.org/2000/svg" xmlns:xlink="http://www.w3.org/1999/xlink" x="0px" y="0px"
	 viewBox="0 0 459 459" style="enable-background:new 0 0 459 459;" xml:space="preserve">
<g>
	<g>
		<path d="M446.132,69.061c-3.536-2.825-8.184-3.885-12.599-2.885c-0.13,0.029-13.283,2.952-33.888,2.952
			c-41.653,0-103.206-11.284-159.9-65.044c-5.744-5.446-14.745-5.446-20.488,0c-0.174,0.165-0.349,0.325-0.524,0.49
			c-0.034,0.031-0.07,0.059-0.104,0.091C162.08,57.941,100.793,69.125,59.338,69.126c-17.415,0-29.495-2.086-32.871-2.743
			c-4.185-0.816-8.091-1.018-12.502,1.885c-4.383,2.884-6.71,7.615-6.71,12.422c0,97.156,19.557,199.937,74.201,279.733
			c0.201,0.293,0.401,0.588,0.602,0.878c32.823,47.59,89.139,97.7,147.443,97.7c47.655,0,102.766-35.468,143.828-92.565
			c35.774-49.743,78.417-139.696,78.417-285.747C451.746,76.164,449.668,71.888,446.132,69.061z M213.95,427.442
			c-28.848-6.17-68.824-29.12-104.46-78.89C77.833,304.339,40.354,225.48,37.24,97.889c6.117,0.576,13.575,1.014,22.099,1.014
			c54.988-0.002,108.856-17.475,154.611-51.501V427.442z M349.155,349.05c-36.136,50.246-76.546,72.957-105.429,78.67v-43.591
			c55.49-12.164,136.761-93.085,136.761-262.986c0,0-10.45,2.423-27.097,2.423c-26.531,0-68.809-6.173-109.664-38.092V46.407
			c46.907,35.329,101.435,52.499,155.918,52.499c8.531,0,15.995-0.439,22.117-1.016C418.641,225.844,380.972,304.809,349.155,349.05
			z M243.727,353.23V121.748h0c40.945,25.532,81.155,31.073,105.918,31.558c-7.241,106.499-50.609,167.914-89.239,191.831
			C254.752,348.638,249.067,351.377,243.727,353.23z"/>
	</g>
</g>
<g>
</g>
<g>
</g>
<g>
</g>
<g>
</g>
<g>
</g>
<g>
</g>
<g>
</g>
<g>
</g>
<g>
</g>
<g>
</g>
<g>
</g>
<g>
</g>
<g>
</g>
<g>
</g>
<g>
</g>
</svg>
