<?xml version="1.0" encoding="iso-8859-1"?>
<!-- Generator: Adobe Illustrator 19.0.0, SVG Export Plug-In . SVG Version: 6.00 Build 0)  -->
<svg version="1.1" id="Layer_1" xmlns="http://www.w3.org/2000/svg" xmlns:xlink="http://www.w3.org/1999/xlink" x="0px" y="0px"
	 viewBox="0 0 512 512" style="enable-background:new 0 0 512 512;" xml:space="preserve">
<g>
	<g>
		<path d="M403.967,158.781h-21.752V107.3h50.019V0H214.338v107.3h50.019v51.482H174.1v-48.73H30.251v212.071H174.1v-48.731h192.43
			c0.336,0,0.609,0.274,0.609,0.609v96.853h114.61V236.562C481.749,193.674,446.856,158.781,403.967,158.781z M140.709,158.782
			v114.609v15.339H63.643V143.442h77.066V158.782z M247.729,73.908V33.391h151.113v40.517h-16.628H264.357H247.729z M348.823,107.3
			v51.482h-51.075V107.3H348.823z M400.53,337.461V274c0-18.748-15.253-34-34-34H174.1v-47.826h90.257h117.858h21.752
			c24.477,0,44.389,19.913,44.389,44.389v100.899H400.53z"/>
	</g>
</g>
<g>
	<g>
		<path d="M464.947,447.098c-4.149-8.554-23.841-42.44-26.073-46.277l-14.431-24.805l-14.431,24.805
			c-2.232,3.836-21.923,37.723-26.071,46.278c-5.437,11.214-6.953,30.205,2.568,45.4c7.878,12.574,21.35,19.5,37.935,19.5
			c16.584,0,30.057-6.925,37.935-19.5C471.899,477.304,470.383,458.313,464.947,447.098z M434.081,474.772
			c-0.658,1.048-2.404,3.837-9.638,3.837s-8.98-2.787-9.638-3.837c-2.468-3.94-2.133-10.393-0.818-13.104
			c1.38-2.847,5.561-10.354,10.456-18.97c4.895,8.615,9.076,16.122,10.456,18.969C436.214,464.38,436.549,470.833,434.081,474.772z"
			/>
	</g>
</g>
<g>
</g>
<g>
</g>
<g>
</g>
<g>
</g>
<g>
</g>
<g>
</g>
<g>
</g>
<g>
</g>
<g>
</g>
<g>
</g>
<g>
</g>
<g>
</g>
<g>
</g>
<g>
</g>
<g>
</g>
</svg>
