<svg xmlns="http://www.w3.org/2000/svg" viewBox="0 0 592.72 812.68"><defs><style>.cls-1{fill:#093e6f;}.cls-2{fill:#fff;}</style></defs><g id="Layer_2" data-name="Layer 2"><g id="Layer_1-2" data-name="Layer 1"><path class="cls-1" d="M287.72.08A302.62,302.62,0,0,0,241,5.82C144.73,25.53,64.36,93,28,184.57a292.17,292.17,0,1,0,543.32,0C536.73,97.66,462,31.86,371.91,9A295.76,295.76,0,0,0,321.28.68C315.71.21,292.52-.17,287.72.08Zm29.1,34.16c62.06,4.33,118.9,29.65,162.91,72.51,43.62,42.48,70.21,96.51,77,156.66A230.11,230.11,0,0,1,558.19,297a208.55,208.55,0,0,1-2,28.85c-6.29,49.23-27.19,95.75-60.58,134.91-6.11,7.22-22,22.81-29.48,29.06-41.08,34.28-87.21,53.69-141.67,59.6-9.73,1.06-39.12,1.06-48.85,0-34.88-3.78-65.12-12.7-94.05-27.78A259.07,259.07,0,0,1,44.35,329.26c-2-14.15-2.34-18.74-2.34-37.17s.26-22.9,2.34-37.17c11.72-81.65,63-153.61,136.74-192.14A261.39,261.39,0,0,1,284.74,34.11C290.44,33.77,311.42,33.85,316.82,34.24Z"/><path class="cls-1" d="M289.63,68.9c-1.15.08-4.8.34-8.07.59-52,4-102.12,27.23-139.63,64.74C109.22,166.94,87.25,209,79.61,253.86a220.11,220.11,0,0,0,0,76.88A224,224,0,0,0,266.69,513.41c11.89,1.78,19.07,2.25,33.13,2.25,17.25,0,27.4-.93,43.12-4a223.46,223.46,0,0,0,100-391,224.49,224.49,0,0,0-122.17-51C314.61,69.07,294.13,68.56,289.63,68.9Zm29.95,32.67a192.09,192.09,0,1,1-65,4.5,209,209,0,0,1,35.43-5.31C295.19,100.42,313.59,100.93,319.58,101.57Z"/><path class="cls-1" d="M288.57,144.73a148.35,148.35,0,0,0-63.13,19.54c-39.38,23.11-65.84,62.06-72.38,106.45a148.1,148.1,0,0,0,19.41,97.83A149.63,149.63,0,0,0,236,426.28a146.23,146.23,0,0,0,59,14.32c62.27,2.21,120-35.94,142.86-94.56a152.78,152.78,0,0,0,9.26-38c.68-5.57.72-24.17,0-30.37-5.22-47.84-31.82-89-73.32-113.38A148.78,148.78,0,0,0,288.57,144.73Zm25.23,24.42c36.87,3.95,71.28,25.79,91,57.73a123.51,123.51,0,0,1-2.12,133.9c-38.23,57.39-116.14,72.6-172.77,33.77a132.51,132.51,0,0,1-27-24.94,123.78,123.78,0,0,1,57.69-195C278.29,168.81,294.68,167.11,313.8,169.15Z"/><path class="cls-2" d="M25.4,608.39c-11.13,1.66-18.82,6.42-22.47,13.89A26.65,26.65,0,0,0,0,635.33c0,9,3.48,15.76,10.66,20.56,6.46,4.29,13.09,5.94,33.56,8.49,15,1.87,16.19,2.34,16.23,6.08,0,2.33-1.7,4.07-5,5.09C52,676.66,40,676.62,35,675.51A49.77,49.77,0,0,1,3.23,653.76c-.38-.64-.51,3.15-.51,17.33,0,10,0,18.19.17,18.19s2.93-1.53,6.24-3.4l6-3.4L19,684.13c21.83,9.35,43.37,8.33,54.2-2.5,5-5,7-10.2,6.93-18.06s-2.59-13.84-8.24-19.11c-5.87-5.4-13.21-7.56-34.37-10.2-16.78-2.08-20.09-3.31-20.09-7.43,0-3.7,3.4-5.48,11.21-5.82,13.89-.64,26.55,4.5,39.59,16.14l3.27,2.93V608.61l-6.58,3.18c-3.65,1.74-6.8,3.15-7,3.15a20.14,20.14,0,0,1-3.27-1.45,53,53,0,0,0-12.92-4.29C38.23,608.52,28,608,25.4,608.39Z"/><path class="cls-2" d="M532.61,608.39c-11.13,1.66-18.82,6.42-22.47,13.89a26.65,26.65,0,0,0-2.93,13.05c0,9,3.48,15.76,10.66,20.56,6.46,4.29,13.09,5.94,33.56,8.49,15,1.87,16.19,2.34,16.23,6.08,0,2.33-1.7,4.07-5,5.09-3.49,1.11-15.42,1.07-20.48,0a49.77,49.77,0,0,1-31.73-21.75c-.38-.64-.51,3.15-.51,17.33,0,10,0,18.19.17,18.19s2.93-1.53,6.24-3.4l6-3.4,3.87,1.65c21.83,9.35,43.37,8.33,54.2-2.5,5-5,7-10.2,6.93-18.06s-2.59-13.84-8.24-19.11c-5.87-5.4-13.22-7.56-34.37-10.2-16.78-2.08-20.09-3.31-20.09-7.43,0-3.7,3.4-5.48,11.21-5.82,13.89-.64,26.55,4.5,39.59,16.14l3.27,2.93V608.61l-6.58,3.18c-3.65,1.74-6.8,3.15-7,3.15a20.14,20.14,0,0,1-3.27-1.45,53,53,0,0,0-12.92-4.29C545.44,608.52,535.16,608,532.61,608.39Z"/><path class="cls-2" d="M339.84,610.09a51.39,51.39,0,0,0-28.55,14.83c-5.73,5.69-9.05,11-10.91,17.5-.81,2.76-1,4.33-1,9.26,0,5.4.13,6.29,1.23,9.35,3,8.66,8.71,15.37,18.27,21.36,15.93,10.07,40.14,10.84,55.69,1.83,3.48-2,9.05-7.65,10.75-11,3.73-7.09,4.07-16.57.76-20.69l-1-1.23-.25,2.76a18.29,18.29,0,0,1-7.73,13.38c-6,4.55-11.81,6.46-20.61,6.8-7.6.3-12.49-.51-17.29-2.85-5.22-2.59-8-6.2-9.77-12.74-1.1-4.16-1-14.78.22-19.24,3.14-11.52,10.83-16.57,24.08-15.89A33.2,33.2,0,0,1,367,626.62c7.05,3.23,12.61,8.54,17.16,16.27l1.66,2.84V628.4c0-9.51-.13-17.29-.3-17.29a32.78,32.78,0,0,0-3.7,3.06c-1.91,1.66-3.86,3.44-4.37,3.87l-.94.85-2.67-1.75A48.29,48.29,0,0,0,339.84,610.09Z"/><path class="cls-2" d="M97.32,620.75l9.05,8.84,0,19.75V669.1l-9,8.79-9,8.79h30.55l30.54.05-9-8.75-9-8.76v-7.13h14.15c14.74,0,19.24-.3,24.42-1.7,6.67-1.83,13-6.25,15.51-11,3.35-6.16,3.23-15.34-.26-21.88S173.36,615.28,163.63,613c-2.84-.68-6.54-.76-39.25-.89L88.27,612Zm57.35,5.87c4.25,1.27,6.46,5,6.46,10.83,0,3.65-.94,6.75-2.47,8.2-2.21,2.12-4.2,2.42-16.31,2.42h-11V626h10.54C150.17,626,153,626.11,154.67,626.62Z"/><path class="cls-2" d="M212.1,612.22c0,.12,2.51,3.18,5.57,6.84l5.56,6.58-10.07,21.79L203.1,669.22l-6.8,8.25c-3.74,4.5-7,8.45-7.22,8.7-.34.43,4.16.56,22.43.56H234.4l-4.88-5c-2.68-2.72-6-6.16-7.39-7.6l-2.51-2.63,1-2.55.93-2.59H250l1.06,2.33a21.34,21.34,0,0,1,1,2.68c0,.17-3.73,3.65-8.32,7.73l-8.33,7.43,15.34.13c8.45,0,22.21,0,30.62,0l15.3-.13L287.55,678l-9.09-8.5-9.77-20.81c-5.4-11.47-10-21.33-10.33-22-.46-1.1-.29-1.35,4.51-7l5.86-6.84.85-.94H240.86C225.06,612,212.1,612.09,212.1,612.22Zm27.78,31.86,4.42,9.72-8.71.13c-4.8,0-8.79,0-8.87,0s1.48-3.95,3.48-8.62,3.91-9.09,4.25-9.9.68-1.36.8-1.23S237.46,638.72,239.88,644.08Z"/><path class="cls-2" d="M404.88,620.8l9,8.79V669.1l-9,8.79-9.05,8.79,48.76.05h48.73V668.67c0-9.94,0-18-.13-18s-4.5,4.76-9.85,10.62l-9.73,10.62H438.94V655.29h19l6.54,4.93,6.5,4.93.12-16.27c.05-8.92,0-16.32-.08-16.4a58.34,58.34,0,0,0-6.58,3.87L458,640.42H438.94V624.28h34.63l8.36,9.05c4.63,5,8.8,9.43,9.27,9.85l.84.77V612H444l-48.13,0Z"/><path class="cls-2" d="M2.38,715.74C0,718.33-.08,718.54.81,719.27a16.9,16.9,0,0,0,2.46,1.48l1.62.89,1.44-1.4,1.4-1.36,2.38,1.36c2.68,1.53,2.72,1.53,4.93-1.27l1.23-1.57-2.59-1.58-2.59-1.57-1.36,1.32a4.93,4.93,0,0,1-1.91,1.32,7.91,7.91,0,0,1-2.34-1.23l-1.83-1.28Z"/><path class="cls-2" d="M452.24,715.74c-2.38,2.59-2.46,2.8-1.57,3.53a16.9,16.9,0,0,0,2.46,1.48l1.62.89,1.44-1.4,1.4-1.36,2.38,1.36c2.68,1.53,2.72,1.53,4.93-1.27l1.23-1.57-2.59-1.58L461,714.25l-1.36,1.32a4.85,4.85,0,0,1-1.91,1.32,7.91,7.91,0,0,1-2.34-1.23l-1.82-1.28Z"/><path class="cls-2" d="M190.86,716.5a27.5,27.5,0,0,0-.51,5.36c0,3.31.05,3.65,1.11,4.75a14,14,0,0,0,3.23,2.34l2.08,1.15.46-.89c.47-.85.51-.85,1.79.72A26.66,26.66,0,0,1,202.8,737c.72,2.55-1.36,4.42-10.45,9.39l-5.95,3.27,4.33-.25c5.7-.34,8.29-.9,11.35-2.51s5-4.16,6.24-8.16c1.49-4.88,1.57-4.75,2.34,4.55l.25,3.31h18.18v-6.79h-7.17c-4,0-7.31-.17-7.44-.39s-.64-4.67-1.1-9.85c-1.19-13.38-1.24-13.68-2-13.09-1.44,1.24-2,3.19-2.29,8.29-.26,4.16-.51,5.69-1.45,7.86a39.17,39.17,0,0,0-2.25,6.33c-.34,1.23-.42.8-.47-2.59,0-5-.76-7.52-3.06-10.84a59.32,59.32,0,0,0-9-9.56l-1.57-1.27Z"/><path class="cls-2" d="M313.37,716.5a7,7,0,0,1-2.08,1.66,9.49,9.49,0,0,1-2.42-1.23L307,715.7l-1.78,2.08-1.75,2,1.36,1c2.93,2.16,3.27,2.21,4.8.72l1.45-1.4,2.38,1.36a6.87,6.87,0,0,0,3,1.14,7.75,7.75,0,0,0,1.87-2.08l1.32-1.91-2.3-1.91-2.25-2Z"/><path class="cls-2" d="M106.24,717.18c-1.4,2.13-2.89,5.06-2.89,5.7a3.15,3.15,0,0,0,.81,1.4c1,1.06,2.59,9.26,2.59,13.12v2.51l-3.91-.17a17.88,17.88,0,0,1-5-.72c-1-.55-1-.6-.68-5.44l.3-4.88-1.44,1.61C93.63,733,93.16,734,93.16,736c0,4.08.25,3.91-6.37,3.74-7.86-.17-7.82-.13-7.44-6.5l.26-4.67-1.32,1.49c-2.29,2.54-3,3.9-3,5.94,0,4,.21,3.83-6.2,3.83-5.1,0-5.78-.09-6.55-.85-1.14-1.15-3-4.89-3-6.12,0-1.66-1.1-2.46-2.89-2.12-3.31.59-6,2.8-8,6.62l-1.19,2.25H44c-3.23,0-3.66-.08-4.38-1a2.44,2.44,0,0,1-.64-1.7,37.87,37.87,0,0,0,.51-4.29l.26-3.61-1.32,1.28a9.21,9.21,0,0,0-3.31,6.79l-.26,2.85-6-.17c-4.29-.08-6.24-.3-6.92-.76-1.1-.73-1.32-1.62-3.1-11.9-1.23-6.92-1.49-8-1.83-7.6-1.19,1.48-3.31,6.29-3.14,7.09s-.26,1.32-3.31,3.32a30.91,30.91,0,0,0-4.8,3.73c-1.15,1.32-2.64,5-3.28,8.16l-.25,1.27,4.37,1a30.85,30.85,0,0,0,5.87.81c1.27-.13,1.61-.38,2.33-1.91,1.36-2.85,1.79-3,2.3-1.15a13.9,13.9,0,0,1,.46,2.21,3.31,3.31,0,0,0,1.07,1.57c1,1.06,1.14,1.06,8,1.06h7l1.06-2c1-1.87,1.11-2,1.4-1a6.56,6.56,0,0,0,1.19,2c.77.89,1.28,1,4.8,1,4.17,0,4.42-.12,5.14-2.33.26-.73.68-1.24.94-1.15s2.76,1.53,5.6,3.27a31.9,31.9,0,0,0,5.44,3A4.39,4.39,0,0,0,60,747.9l.51-1.28H73.41l1-2,1.06-2,.76,1.53a6.21,6.21,0,0,0,1.57,2,39.43,39.43,0,0,0,7.14.42h6.29l1-1.91,1-1.91.85,1.36c1.4,2.34,1.69,2.42,8.45,2.46h6.2l.68-1.82c1.23-3.19,1.45-5.74,1-10.75l-.38-4.8,2.12-2.85a20.1,20.1,0,0,0,2.17-3.18,9.14,9.14,0,0,0-2.51-1.83c-2.89-1.78-3.35-2.25-4.08-4.29l-.51-1.53Zm-90.86,17a11.61,11.61,0,0,1,.34,2.5,34.17,34.17,0,0,1-5.74-.85c-.08-.08.56-.59,1.4-1.1a8.34,8.34,0,0,0,2.21-2c.34-.55.81-1,1-1A6.44,6.44,0,0,1,15.38,734.18Zm40.82,4.16c0,1.27-.17,1.32-2,.17s-1.83-1.53-.47-1.74S56.2,737.19,56.2,738.34Z"/><path class="cls-2" d="M265.07,719.14l-1.95,3.52.81,7.18c.47,4,.85,7.86.85,8.58,0,1.36,0,1.41-1.91,1.41H261v3.39c0,3.36,0,3.4,1.07,3.4.8,0,1.27-.42,2.08-2l1.06-2,0,1.53a3.37,3.37,0,0,0,.51,2c.34.34,2.59.51,7.39.51H280l.67-1.82c1.24-3.19,1.45-5.74,1-10.75l-.38-4.8,2.13-2.85a19.68,19.68,0,0,0,2.16-3.18A10.84,10.84,0,0,0,283,721.3c-2.59-1.57-4.2-3.48-4.2-5,0-.76-.09-.76-.85.21-1.15,1.45-3.4,5.74-3.4,6.42a3.11,3.11,0,0,0,.8,1.4c1,1.06,2.6,9.26,2.6,13.08v2.47h-3.83c-3.65,0-3.86-.05-4.2-1-.21-.55-.89-6-1.49-12s-1.19-11-1.23-11.13A22.48,22.48,0,0,0,265.07,719.14Z"/><path class="cls-2" d="M423.74,717.44a8.05,8.05,0,0,0-1.79,2.25,9.62,9.62,0,0,0,1.87,2.25c1.28,1.23,2.08,1.74,2.47,1.49,1.74-1.06,3.73-3,3.73-3.61s-3.56-4.21-4.2-4.21A9.55,9.55,0,0,0,423.74,717.44Z"/><path class="cls-2" d="M528.24,717.4c-2,2.59-2.47,4.33-1.53,5.73.51.81,1,3.23,1.49,8.07a59,59,0,0,1,.55,7.52,1.79,1.79,0,0,1-1.15.85c-.51.13-7.77.26-16.1.26-14.57,0-15.25-.05-16.06-.85-1.14-1.15-3-4.89-3-6.12,0-1.66-1.1-2.46-2.89-2.12-3.31.59-5.95,2.8-8,6.62l-1.19,2.25h-3.65A12.67,12.67,0,0,1,472,739c-1.27-.68-1.4-1.23-3.27-11.94-1.23-6.92-1.49-8-1.83-7.6-1.19,1.48-3.31,6.29-3.14,7.09s-.25,1.32-3.31,3.32a30.91,30.91,0,0,0-4.8,3.73c-1.15,1.32-2.64,5-3.27,8.16l-.26,1.27,4.38,1a30.68,30.68,0,0,0,5.86.81c1.27-.13,1.61-.38,2.34-1.91,1.35-2.85,1.78-3,2.29-1.15a14.28,14.28,0,0,1,.47,2.21,3.27,3.27,0,0,0,1.06,1.57c1,1,1.32,1.06,5.65,1.06,5,0,5.14-.08,5.9-2.33.26-.73.68-1.24.94-1.15s2.76,1.53,5.6,3.27a31.9,31.9,0,0,0,5.44,3,4.39,4.39,0,0,0,.89-1.53l.51-1.28h71.92l1-2,1.06-2,.77,1.53c1.06,2.09,2,2.43,6,2.3l3.48-.13,1-1.7c.51-.93,1-1.87,1.1-2.12s2.29.42,4.89,1.44c4.63,1.83,4.8,1.87,5.39,1.06a22,22,0,0,0,2.76-5.82c0-1.44-2.55-10.23-3.06-10.53-2.38-1.53-8.92,3.69-11,8.75l-1,2.42-2.51-.21c-4-.34-4.29-.81-4-6.46l.25-4.67-1.31,1.49c-2.3,2.54-3,3.9-3,5.94,0,4,.34,3.83-6.88,3.83-5.9,0-6.37-.05-6.07-.77.68-1.66.68-2.17-.21-3.91-1.15-2.25-4.3-5.39-5.57-5.6-2.21-.34-8.28,2.25-15.55,6.67a9.5,9.5,0,0,1-1.82,1c0-.08.29-1.19.63-2.46a22.14,22.14,0,0,0,.64-4.67c0-1.92.17-2.47.89-2.89a7.59,7.59,0,0,0,1.83-2.72l1-2.21-2-1.28a14.08,14.08,0,0,1-3.27-3.31l-1.32-1.95Zm-63,16.78a11.61,11.61,0,0,1,.34,2.5,34.17,34.17,0,0,1-5.74-.85c-.08-.08.56-.59,1.41-1.1a8.5,8.5,0,0,0,2.21-2c.34-.55.8-1,1-1A6.44,6.44,0,0,1,465.24,734.18Zm121,1.06c.46.47.72,2,.29,2a15.87,15.87,0,0,1-1.65-.72c-1.19-.56-1.41-.81-1.07-1.28A1.7,1.7,0,0,1,586.27,735.24Zm-39.77,1.15a8.59,8.59,0,0,1,2.47,2.12c.47.89.42.89-7,.89-4.08,0-7.44-.08-7.44-.17,0-.38,4.85-2.93,6.55-3.48C543.66,734.94,544.34,735,546.5,736.39Zm-57.43,2c0,1.27-.17,1.32-1.95.17s-1.83-1.53-.47-1.74S489.07,737.19,489.07,738.34Z"/><path class="cls-2" d="M93.16,717.52a9.35,9.35,0,0,1-1.7,1.49,12.48,12.48,0,0,1-2.34-1.36l-2-1.36-1.61,1.79a7.35,7.35,0,0,0-1.66,2.21c0,.51,3.7,3,4.46,3A4.22,4.22,0,0,0,89.93,722l1.23-1.28L93.37,722a9.9,9.9,0,0,0,2.85,1.23c.34,0,1.27-.89,2-2l1.44-2-1-.68c-.55-.38-1.7-1.11-2.55-1.62l-1.57-.93Z"/><path class="cls-2" d="M360.87,718.37a8.44,8.44,0,0,0-1.79,3.83c0,.68.39,6.16.85,12.1s.85,11.18.85,11.56c0,.68.6.76,6.33.76,5.4,0,6.46-.12,7.1-.72s.72-.68,1.23,0,2.89.72,31.39.72h30.84l.43-1.06a34.84,34.84,0,0,0,.89-4.84,16.86,16.86,0,0,0-.17-6.88c-2.25-10.92-6.16-13.43-11.73-7.4-2.42,2.64-4,6.16-3.69,8,.29,1.66,1.14,2.51,3.35,3.44a5.56,5.56,0,0,0,6.12-1.18c.76-.68,1.53-1.15,1.66-1a8.64,8.64,0,0,1,.76,3.78c-.13.17-7.3.34-16,.34H403.56l.25-1.49a7,7,0,0,0-8.53-7.82c-2.64.6-4.51,1.62-9.9,5.48-3.74,2.72-5,3.4-6.2,3.4-1.36,0-1.49-.08-1.24-1,1.53-5.39,1.83-7.09,1.24-7.09-.9.09-3.79,4.33-4,6a4.25,4.25,0,0,1-.85,2.17c-.64.38-6,.46-7.9.08a1.78,1.78,0,0,1-1.53-1.19c-.13-.47-.51-4.93-.89-9.81s-.81-9.77-1-10.83l-.3-1.87Zm70.39,11.52c1.23,1.53,1.1,1.86-.47,1.86s-2.89-.8-2.89-1.61c0-.51,1.19-1.32,2-1.36A3,3,0,0,1,431.26,729.89Zm-35.94,6.58c1.4.72,2.84,2.17,2.84,2.8,0,.43-1.36.56-6.37.56-3.48,0-6.37-.17-6.37-.34,0-.34,4.46-2.72,5.95-3.23A6.51,6.51,0,0,1,395.32,736.47Z"/><path class="cls-2" d="M387.84,718.5,385.42,721l2,1.49c3.74,2.81,3.52,2.81,6.24,0a14.37,14.37,0,0,0,2.38-2.85A26,26,0,0,0,390.6,716,17.75,17.75,0,0,0,387.84,718.5Z"/><path class="cls-2" d="M71.79,718.54c-2.59,2.89-2.67,3.27-.85,4.42.89.55,2.21,1.32,3,1.7l1.31.72,1.49-1.65c1.49-1.66,2.63-3.4,2.34-3.66s-5.27-3.18-5.48-3.18A8,8,0,0,0,71.79,718.54Z"/><path class="cls-2" d="M563.71,718.54c-2.59,2.89-2.68,3.27-.85,4.42.89.55,2.21,1.32,3,1.7l1.32.72,1.49-1.65c1.48-1.66,2.63-3.4,2.33-3.66s-5.27-3.18-5.48-3.18A8.08,8.08,0,0,0,563.71,718.54Z"/><path class="cls-2" d="M541.15,719.48a10,10,0,0,0-1.95,2.72,7.73,7.73,0,0,0,2.12,2.33c2.59,2.17,3.27,2.08,5.91-.59l1.91-1.91-2.38-2.38a9.64,9.64,0,0,0-3-2.34A7.84,7.84,0,0,0,541.15,719.48Z"/><path class="cls-2" d="M120.47,718.63a41.8,41.8,0,0,0-2,3.78l-1.61,3.19,1.15,10c.68,5.48,1.27,10.28,1.4,10.62s.72-.43,1.53-2.13c1.19-2.5,1.31-3.27,1.48-7.77a102.51,102.51,0,0,0-1.1-16.82C121,718.33,120.86,718.16,120.47,718.63Z"/><path class="cls-2" d="M332.87,718.63a41.8,41.8,0,0,0-2,3.78l-1.61,3.19,1.15,10c.68,5.48,1.27,10.28,1.4,10.62s.72-.43,1.53-2.13c1.19-2.5,1.31-3.27,1.48-7.77a102.51,102.51,0,0,0-1.1-16.82C333.42,718.33,333.25,718.16,332.87,718.63Z"/><path class="cls-2" d="M171.24,726.57c-1.58,1-2.68,2.55-4.17,5.69-1.7,3.62-1.61,4.17.43,2.3s3.61-2,5.14-.72l1,.76L170,736.3c-4.5,2.12-5.9,3.65-5.9,6.41,0,3.28,1.91,16,2.34,16,.25,0,.8-1.06,1.27-2.34.64-1.82.81-3.35.77-7.22,0-2.67-.13-5.35-.22-5.9-.12-.9.13-1.15,1.57-1.57a14,14,0,0,1,7.86,0,23.5,23.5,0,0,0,2.81.63c.51,0,2.5-6,2.25-6.71-.43-1.14-5.86-7.56-7.35-8.66C173.49,725.6,172.81,725.55,171.24,726.57Z"/><path class="cls-2" d="M145.28,728.78a15.94,15.94,0,0,0-2.84,3.91,11.39,11.39,0,0,0-1.62,6.07c-.17,3,0,3.53.72,4.51,1,1.31,2.55,1.7,4.55,1.19a3,3,0,0,0,2.12-2.09c.81-1.82,1.62-1.86,1.19-.08s-2.63,4.55-5.61,6.75c-3.9,3-5.22,3.57-9.17,4.12l-3.44.51,3.61,1.19c4.71,1.53,9.17,1.7,10.92.43,1.91-1.4,3.73-4.46,5-8.5,2.25-6.88,1.45-14.91-1.83-18.18C147.53,727.21,147,727.21,145.28,728.78Zm1.66,7c1,1.57.51,2.42-1.36,2.25-2-.17-2.76-1.23-1.7-2.42S146.09,734.52,146.94,735.79Z"/><path class="cls-2" d="M321.15,730.74l-1.53,3.31.85,1.4a13.22,13.22,0,0,1,1.23,2.68l.38,1.27h-19l-1.31-1.32c-1.74-1.74-2.3-4-1.83-7.39.77-5.65-1.61-1.1-3.1,5.95-.89,4.16-.43,6.46,1.7,8.58l1.4,1.4h22.6l.89-1.78c3.23-6.29,3.32-12.41.26-16.23l-1-1.19Z"/><path class="cls-2" d="M346.13,728.91a11.92,11.92,0,0,0-6.89,9c-.34,2.55.51,3.74,3.11,4.46l2,.56-1.57,1.27c-1.44,1.15-3.23,3.91-3.23,5,0,.21.89-.25,2-1.1,3.27-2.51,7.94-4.42,10.79-4.42,1,0,1.4-.43,2.67-2.72a25.55,25.55,0,0,0,1.53-2.93,29.49,29.49,0,0,0-4.54-.43c-6.71-.38-9.26-1.35-7.39-2.88a3.46,3.46,0,0,1,4.63.25L350.5,736l1.32-2.12c1.57-2.55,1.61-3,.38-4.46C350.8,727.85,348.76,727.68,346.13,728.91Z"/><path class="cls-2" d="M237.51,733.62c-1.36,1.75-2,3-2.13,4l-.13,1.53-2.42.13-2.46.12v7.18h1.87a3.57,3.57,0,0,0,2.38-.63,1.74,1.74,0,0,1,.89-.64c.21,0,.38.3.38.64,0,.51.81.63,4.59.63,3,0,4.76-.17,5.1-.51s.63-.38,1,0,2,.51,4.41.51c3.32,0,4-.12,4.21-.76s.3-.68.81,0a2.51,2.51,0,0,0,2.12.76h1.53v-3.57c0-3.14-.09-3.61-.76-3.86-1.07-.3-1.66-1.66-2-4.72l-.3-2.46-1.15,1.36a8.9,8.9,0,0,0-2.33,4.88c-.26,1.62-.3,1.62-2,1.49-2-.13-2,.09-1.41-5.39.3-2.55.26-3.1-.21-2.93-1,.33-4.25,5.47-4,6.24a2,2,0,0,1-.3,1.44c-.47.64-1,.68-3.78.47l-3.27-.3.85-3a17.2,17.2,0,0,0,.68-4.08C239.5,731.2,239.37,731.29,237.51,733.62Z"/><path class="cls-2" d="M28.42,751.38a7.25,7.25,0,0,0-1.53,2.29c0,.26.89,1.11,2,1.79l2,1.32,1.36-1.32,1.35-1.32,2.13,1.36a5.3,5.3,0,0,0,2.63,1.11,12.16,12.16,0,0,0,1.7-2.26l1.23-1.91L39.21,751a11.8,11.8,0,0,0-2.46-1.4,3.88,3.88,0,0,0-1.49,1.27,5,5,0,0,1-1.53,1.28,9.21,9.21,0,0,1-2.08-1.28l-1.74-1.23Z"/><path class="cls-2" d="M270.72,788.68V804.4h3V773h-3Z"/><path class="cls-2" d="M165,774.66c-3.73,2.29-4.41,7.73-1.4,11.17l1.23,1.32L163.25,789c-1.95,2.2-2.72,4.75-2.46,8.32.25,4.46,2.63,7.1,6.58,7.44,2.89.25,4.42-.43,6.46-2.77l1.65-1.82,1.58,2.12c1.44,2,1.65,2.13,3.44,2.13a3.8,3.8,0,0,0,1.87-.26,45.57,45.57,0,0,0-2.72-3.7L177,797l.6-1.7a25.62,25.62,0,0,0,.85-5.44l.25-3.69h-3.1v4a16,16,0,0,1-.3,4.21c-.21.13-1.57-1.45-3.1-3.44-1.66-2.17-2.55-3.7-2.25-3.78a8.29,8.29,0,0,0,3.4-3.23c1-1.87,1-5.78,0-7.27A6.29,6.29,0,0,0,165,774.66Zm5,2.63c2.21,2.42-.05,9.77-2.59,8.37s-3.36-7.43-1.07-9A3.22,3.22,0,0,1,170.05,777.29Zm0,16.06c4.08,5.18,3.95,4.89,3.1,6.16-1.44,2.21-4.93,3-6.92,1.66-2.25-1.57-3.15-5.91-2-9.22.68-1.83,1.95-3.44,2.38-3Z"/><path class="cls-2" d="M409.63,774.49c-3.1,1.36-5.35,4.59-6.37,9.13-.76,3.36-.34,11.43.68,14.15,1,2.55,3.7,5.69,5.57,6.46a11.15,11.15,0,0,0,8.19-.39c5.53-2.89,7.82-13.17,5-22.3a11,11,0,0,0-5.65-6.92A10.43,10.43,0,0,0,409.63,774.49Zm7.06,3.61c2.33,1.4,3.65,4.76,3.9,9.64s-.38,8.24-2,10.84a6.06,6.06,0,0,1-9.77,1.06c-2-2-2.81-4.89-2.81-10.11,0-5.69.68-8.07,3-10.5,1.65-1.69,1.91-1.82,4-1.82A6.82,6.82,0,0,1,416.69,778.1Z"/><path class="cls-2" d="M5.23,789.32V804.4h3V790l5.44-.12,5.39-.13.13-1.61.13-1.58H8.2v-8.92H19.71L19.58,776l-.12-1.57-7.1-.13-7.13-.09Z"/><path class="cls-2" d="M63.85,789.27V804.4h3V793.48l2.93-.26c3.27-.25,4.8-.89,6.5-2.72s2.47-4,2.47-7.09-.47-4.67-2-6.33c-2-2-3.32-2.51-8.24-2.76l-4.59-.21Zm10.36-10c1.23,1.23,1.32,1.53,1.32,4.21,0,4.58-2,6.45-6.58,6.45H66.82V777.51l3,.21C72.51,777.93,73,778.1,74.21,779.29Z"/><path class="cls-2" d="M196,789.32v15.16l5-.17c4.34-.17,5.27-.34,7.14-1.32,4.54-2.29,6.8-7.52,6.46-14.91-.22-5-1.32-7.94-3.78-10.4s-4.51-3.06-10-3.32l-4.84-.25Zm9-11.22a9.73,9.73,0,0,1,5.69,5.4,17.22,17.22,0,0,1,.77,6.28c0,3.74-.17,4.55-1.11,6.37a9.72,9.72,0,0,1-2.85,3.32c-1.48,1.06-2.25,1.27-5.18,1.44l-3.4.21V777.63h2.26A17.42,17.42,0,0,1,205,778.1Z"/><path class="cls-2" d="M495.44,776.15v1.91h3.4v-3.83h-3.4Z"/><path class="cls-2" d="M548.12,776.15v1.91h3.4v-3.83h-3.4Z"/><path class="cls-2" d="M381.6,778.7c0,3.1-.05,3.18-1.06,3.18s-1.07.17-1.07,1.49.13,1.48,1.07,1.48h1.06v7.65c0,8.41.29,9.77,2.33,11.39a6.3,6.3,0,0,0,5.23.68c.76-.22.93-.56.93-2s-.12-1.66-.72-1.4c-1.87.81-2.63.72-3.69-.34s-1.11-1.15-1.11-8.58v-7.44h5.52v-3h-5.52v-6.37h-3Z"/><path class="cls-2" d="M537.07,778.7c0,3.1,0,3.18-1.06,3.18s-1.06.17-1.06,1.49.13,1.48,1.06,1.48h1.06v7.65c0,8.41.3,9.77,2.34,11.39a6.28,6.28,0,0,0,5.22.68c.77-.22.94-.56.94-2s-.13-1.66-.72-1.4c-1.87.81-2.64.72-3.7-.34s-1.1-1.15-1.1-8.58v-7.44h5.52v-3h-5.52v-6.37h-3Z"/><path class="cls-2" d="M25.83,782c-2.72,1.48-4.25,4-4.89,8.28-.8,5.27.47,10.32,3.36,13.08,1.1,1,1.74,1.28,4,1.41,3.44.21,5.06-.85,6.88-4.38,1.19-2.34,1.28-2.8,1.28-7.18s-.09-4.93-1.19-7.18c-1.57-3.18-3.53-4.54-6.46-4.54A8,8,0,0,0,25.83,782Zm4.88,3.1c1.79.93,2.76,3.82,2.76,8.28,0,5.48-1.82,8.5-5,8.5-2.8,0-4.5-3.23-4.54-8.5,0-4.54.51-6.46,2.16-7.82A3.71,3.71,0,0,1,30.71,785.07Z"/><path class="cls-2" d="M84.83,782.22c-3.57,2.25-5.35,7.94-4.42,14,1.15,7.18,6.5,10.4,12.79,7.73l2.08-.89v-4.17l-1.91,1.36c-4.59,3.23-9.64.77-10.07-5l-.12-1.7,6.33-.12,6.32-.13-.29-3.06c-.38-3.53-1.36-6-3-7.52S86.74,781,84.83,782.22ZM91,785.36a11.76,11.76,0,0,1,1.78,5.1c0,.21-2.21.34-4.88.34H83l.25-1.4c.64-3.36,2.29-5,5-5A3.33,3.33,0,0,1,91,785.36Z"/><path class="cls-2" d="M100.72,782c-1.06.38-1.19.63-1.19,2.29v1.91l1.28-.68c1.82-.93,4.84-1.27,6.28-.68a3.89,3.89,0,0,1,2.21,3.66c0,.89-.25,1-2.42,1.31-6.41.77-8.75,2.93-8.75,8,0,2.85.76,4.76,2.51,6.12,1.91,1.48,5.73,1,7.34-1,.81-1,1.32-.85,1.32.38,0,.94.17,1.07,1.53,1.07h1.49l-.13-9.27c-.13-10.23-.3-11-2.85-12.7-1.19-.8-2-1-4.46-.93A15.31,15.31,0,0,0,100.72,782Zm8.58,13.59a12.27,12.27,0,0,1-.34,3.53,6.11,6.11,0,0,1-4.37,2.33c-2.38,0-3.36-1.15-3.36-3.78,0-1.83.17-2.25,1.27-3.18a6.9,6.9,0,0,1,2.89-1.32c.85-.17,1.79-.34,2-.43C109.09,792.12,109.3,792.42,109.3,795.56Z"/><path class="cls-2" d="M121,782.05c-3.14,1.36-5,5.57-5,11.09,0,5.22,1.23,8.49,4,10.53,1.74,1.28,5.26,1.45,7.73.39l2-.9v-4.41l-1,.89c-1.44,1.36-4,2.29-5.43,2-1.79-.38-3.66-2.8-4-5.09-.42-3.1,0-7.95.89-9.48,1.7-2.84,4.93-3.31,7.9-1.1l1.45,1.06.13-1.57c.21-2.12-.09-2.59-1.87-3.36A10.31,10.31,0,0,0,121,782.05Z"/><path class="cls-2" d="M136.23,782.22c-3.56,2.25-5.35,7.94-4.41,14,1.14,7.18,6.49,10.4,12.78,7.73l2.08-.89v-4.17l-1.91,1.36c-4.59,3.23-9.64.77-10.07-5l-.12-1.7,6.33-.12,6.33-.13-.3-3.06c-.38-3.53-1.36-6-3-7.52S138.14,781,136.23,782.22Zm6.12,3.14a11.76,11.76,0,0,1,1.78,5.1c0,.21-2.2.34-4.88.34h-4.84l.25-1.4c.64-3.36,2.3-5,5-5A3.33,3.33,0,0,1,142.35,785.36Z"/><path class="cls-2" d="M222,782.22c-3.57,2.25-5.35,7.94-4.42,14,1.15,7.18,6.5,10.4,12.79,7.73l2.08-.89v-4.17l-1.91,1.36c-4.59,3.23-9.64.77-10.07-5l-.12-1.7,6.33-.12,6.32-.13-.29-3.06c-.38-3.53-1.36-6-3-7.52S224,781,222,782.22Zm6.12,3.14a11.76,11.76,0,0,1,1.78,5.1c0,.21-2.21.34-4.88.34h-4.84l.25-1.4c.64-3.36,2.29-5,5-5A3.33,3.33,0,0,1,228.16,785.36Z"/><path class="cls-2" d="M256.45,782.22c-3.57,2.25-5.35,7.94-4.42,14,1.15,7.18,6.5,10.4,12.79,7.73l2.08-.89v-4.17L265,800.23c-4.59,3.23-9.64.77-10.07-5l-.13-1.7,6.33-.12,6.33-.13-.29-3.06c-.39-3.53-1.36-6-3-7.52S258.36,781,256.45,782.22Zm6.12,3.14a11.76,11.76,0,0,1,1.78,5.1c0,.21-2.21.34-4.88.34h-4.85l.26-1.4c.64-3.36,2.29-5,5-5A3.33,3.33,0,0,1,262.57,785.36Z"/><path class="cls-2" d="M282.83,782c-2.72,1.48-4.25,4-4.88,8.28-.81,5.27.46,10.32,3.35,13.08,1.11,1,1.74,1.28,4,1.41,3.44.21,5.05-.85,6.88-4.38,1.19-2.34,1.27-2.8,1.27-7.18s-.08-4.93-1.19-7.18c-1.57-3.18-3.52-4.54-6.46-4.54A8.07,8.07,0,0,0,282.83,782Zm4.89,3.1c1.78.93,2.76,3.82,2.76,8.28,0,5.48-1.83,8.5-5,8.5-2.81,0-4.51-3.23-4.55-8.5,0-4.54.51-6.46,2.17-7.82A3.71,3.71,0,0,1,287.72,785.07Z"/><path class="cls-2" d="M302.75,782.26a5.92,5.92,0,0,0-1.61,1.28c-.51.8-1.1.51-1.1-.6,0-.93-.17-1.06-1.49-1.06h-1.49v30.59h3V808c0-2.47.12-4.46.34-4.46a7.36,7.36,0,0,1,1.35.63c2.43,1.4,5.91.51,7.82-2,3.87-5,3.4-16.48-.85-19.79A5.65,5.65,0,0,0,302.75,782.26Zm4,3c1.36.72,2.17,3.53,2.17,7.69,0,6-1.49,8.45-5.1,8.45a6.07,6.07,0,0,1-2.89-.68c-.89-.59-.93-.93-.93-6.92s0-6.33,1-7.14C303,784.9,305.13,784.34,306.79,785.28Z"/><path class="cls-2" d="M320.72,782.73c-1.78,1.53-2,1.57-2,.21,0-.93-.17-1.06-1.49-1.06h-1.49V804.4h3V787.49l1.48-1.32c1.79-1.53,3.61-1.74,4.89-.47.81.81.85,1.41.85,9.77v8.93h3V787.45l1.57-1.28c2.09-1.74,4-1.78,5.1-.17.64,1,.81,2.38.94,9.77l.12,8.63h3l-.17-9.27c-.13-8.53-.22-9.34-1.11-11-1.1-2.12-2-2.67-4.33-2.67-1.44,0-2,.29-3.48,1.65l-1.75,1.62-1.57-1.62c-1.31-1.4-1.82-1.65-3.31-1.65A4.1,4.1,0,0,0,320.72,782.73Z"/><path class="cls-2" d="M347.78,782.22c-3.57,2.25-5.35,7.94-4.41,14,1.14,7.18,6.49,10.4,12.78,7.73l2.08-.89v-4.17l-1.91,1.36c-4.59,3.23-9.64.77-10.07-5l-.12-1.7,6.33-.12,6.33-.13-.3-3.06c-.38-3.53-1.36-6-3-7.52S349.69,781,347.78,782.22Zm6.12,3.14a11.76,11.76,0,0,1,1.78,5.1c0,.21-2.2.34-4.88.34H346l.25-1.4c.64-3.36,2.3-5,5-5A3.33,3.33,0,0,1,353.9,785.36Z"/><path class="cls-2" d="M367.75,782.26a5.85,5.85,0,0,0-1.62,1.28c-.51.8-1.1.51-1.1-.6,0-.93-.17-1.06-1.49-1.06h-1.48V804.4h3v-17l1.78-1.27c2.26-1.66,4.21-1.7,5.4-.17.85,1.06.89,1.66.89,9.77v8.67h3v-9c0-7.86-.12-9.22-.8-10.75a6.75,6.75,0,0,0-1.79-2.46C372.12,781.2,369.36,781.29,367.75,782.26Z"/><path class="cls-2" d="M444,781.75a9.75,9.75,0,0,0-3.82,4c-2,3.82-2,11,0,14.86s6.37,4.51,9.64,1.53l.94-.85v2c0,2.42-.85,4.59-2.17,5.52s-3.95.9-6.33.05c-1-.34-1.87-.64-1.95-.64a4.48,4.48,0,0,0-.17,1.7c0,2.21,1,2.72,5.18,2.76,3.61,0,4.84-.6,6.59-3.14,1.53-2.26,1.82-5,1.82-16.61v-11h-1.44c-.81,0-1.53.21-1.62.51s-.46.3-1.19-.21A8.61,8.61,0,0,0,444,781.75Zm5.65,3.61,1.19.47-.13,6.37-.12,6.42-1.45,1a5.47,5.47,0,0,1-5.1.55c-1.35-.68-2.16-3.53-2.16-7.35C442,785.87,444.59,783.33,449.69,785.36Z"/><path class="cls-2" d="M460.1,782c-1.06.38-1.19.63-1.19,2.29v1.91l1.27-.68c1.83-.93,4.85-1.27,6.29-.68a3.89,3.89,0,0,1,2.21,3.66c0,.89-.25,1-2.42,1.31-6.42.77-8.75,2.93-8.75,8,0,2.85.76,4.76,2.5,6.12,1.92,1.48,5.74,1,7.35-1,.81-1,1.32-.85,1.32.38,0,.94.17,1.07,1.53,1.07h1.49l-.13-9.27c-.13-10.23-.3-11-2.85-12.7-1.19-.8-2-1-4.46-.93A15.31,15.31,0,0,0,460.1,782Zm8.58,13.59a12.27,12.27,0,0,1-.34,3.53,6.11,6.11,0,0,1-4.37,2.33c-2.38,0-3.36-1.15-3.36-3.78,0-1.83.17-2.25,1.27-3.18a6.9,6.9,0,0,1,2.89-1.32c.85-.17,1.79-.34,2-.43C468.47,792.12,468.68,792.42,468.68,795.56Z"/><path class="cls-2" d="M482,782.26a5.6,5.6,0,0,0-1.61,1.28c-.51.8-1.11.51-1.11-.6,0-.93-.17-1.06-1.49-1.06h-1.48V804.4h3v-17l1.78-1.27c2.26-1.66,4.21-1.7,5.4-.17.85,1.06.89,1.66.89,9.77v8.67h3v-9c0-7.86-.13-9.22-.81-10.75a6.75,6.75,0,0,0-1.79-2.46C486.39,781.2,483.63,781.29,482,782.26Z"/><path class="cls-2" d="M520.42,782c-1.06.38-1.19.63-1.19,2.29v1.91l1.28-.68c1.82-.93,4.84-1.27,6.28-.68a3.89,3.89,0,0,1,2.21,3.66c0,.89-.25,1-2.42,1.31-6.41.77-8.75,2.93-8.75,8,0,2.85.76,4.76,2.51,6.12,1.91,1.48,5.73,1,7.35-1,.8-1,1.31-.85,1.31.38,0,.94.17,1.07,1.53,1.07H532l-.13-9.27c-.13-10.23-.3-11-2.85-12.7-1.18-.8-2-1-4.46-.93A15.31,15.31,0,0,0,520.42,782ZM529,795.56a12.27,12.27,0,0,1-.34,3.53,6.11,6.11,0,0,1-4.37,2.33c-2.38,0-3.36-1.15-3.36-3.78,0-1.83.17-2.25,1.28-3.18a6.81,6.81,0,0,1,2.88-1.32c.85-.17,1.79-.34,2-.43C528.79,792.12,529,792.42,529,795.56Z"/><path class="cls-2" d="M560.22,782c-2.71,1.48-4.24,4-4.88,8.28-.81,5.27.47,10.32,3.36,13.08,1.1,1,1.74,1.28,4,1.41,3.44.21,5-.85,6.88-4.38,1.19-2.34,1.27-2.8,1.27-7.18s-.08-4.93-1.18-7.18c-1.58-3.18-3.53-4.54-6.46-4.54A8.09,8.09,0,0,0,560.22,782Zm4.89,3.1c1.78.93,2.76,3.82,2.76,8.28,0,5.48-1.83,8.5-5,8.5-2.81,0-4.5-3.23-4.55-8.5,0-4.54.51-6.46,2.17-7.82A3.71,3.71,0,0,1,565.11,785.07Z"/><path class="cls-2" d="M580.15,782.26a5.85,5.85,0,0,0-1.62,1.28c-.51.8-1.1.51-1.1-.6,0-.93-.17-1.06-1.49-1.06h-1.48V804.4h3v-17l1.78-1.27c2.25-1.66,4.21-1.7,5.4-.17.85,1.06.89,1.66.89,9.77v8.67h3v-9c0-7.86-.12-9.22-.8-10.75a6.87,6.87,0,0,0-1.79-2.46C584.52,781.2,581.76,781.29,580.15,782.26Z"/><path class="cls-2" d="M40.06,793.14V804.4h3v-8c0-7.77,0-8,1-8.92a7.13,7.13,0,0,1,4.37-1.79c.94,0,1-.17,1-1.91s-.12-1.91-.85-1.91a6.5,6.5,0,0,0-4,2.08c-1.15,1.28-1.53,1.11-1.53-.59,0-1.4-.08-1.49-1.48-1.49H40.06Z"/><path class="cls-2" d="M234.62,782.31c0,.25,1.44,5.31,3.27,11.25l3.23,10.84h2.63l3.19-10.67c1.74-5.86,3.22-11,3.31-11.25.21-.94-2.76-.81-3.06.12-.13.43-1.19,4.21-2.34,8.37s-2.25,7.69-2.33,7.78c-.21.25-.77-1.53-3.32-10.62l-1.74-6.25h-1.4C235.25,781.88,234.62,782.09,234.62,782.31Z"/><path class="cls-2" d="M427.48,793.14V804.4h3v-8c0-7.77,0-8,1-8.92a7.13,7.13,0,0,1,4.37-1.79c.94,0,1-.17,1-1.91s-.13-1.91-.85-1.91a6.47,6.47,0,0,0-4,2.08c-1.15,1.28-1.53,1.11-1.53-.59,0-1.4-.09-1.49-1.49-1.49h-1.48Z"/><path class="cls-2" d="M495.44,793.14V804.4h3V781.88h-3Z"/><path class="cls-2" d="M502.66,783.37v1.48h4.47a20.33,20.33,0,0,1,4.46.26c0,.13-2.09,3.87-4.68,8.28-3.48,6-4.67,8.46-4.67,9.56v1.45h13.17v-3h-4.67c-3,0-4.68-.17-4.68-.47s2.13-4.07,4.68-8.49c3-5.27,4.67-8.54,4.67-9.35v-1.23H502.66Z"/><path class="cls-2" d="M548.12,793.14V804.4h3V781.88h-3Z"/></g></g></svg>