<svg xmlns="http://www.w3.org/2000/svg" viewBox="0 0 479.69 476.44"><defs><style>.cls-1{fill:#1861ac;}.cls-2{fill:#165289;}.cls-3{font-size:130px;fill:#fff;font-family:DESIGNERRegular, DESIGNER;}.cls-4{letter-spacing:-0.08em;}</style></defs><title>Asset 2</title><g id="Layer_2" data-name="Layer 2"><g id="Layer_1-2" data-name="Layer 1"><polygon class="cls-1" points="405.69 310.69 426.48 349.96 382.06 350.15 180.83 351.05 201.72 311.59 361.27 310.89 314.47 222.49 358.9 222.3 405.69 310.69"/><polygon class="cls-2" points="338.11 183.03 358.9 222.3 314.47 222.49 248.74 222.78 201.72 311.59 180.83 351.05 136.2 351.24 157.08 311.79 204.1 222.98 224.99 183.53 293.68 183.23 241.21 84.11 263.47 42.05 338.11 183.03"/><polygon class="cls-1" points="241.21 0 263.47 42.05 241.21 84.11 188.49 183.69 167.6 223.14 120.59 311.95 99.7 351.41 55.07 351.6 75.95 312.15 122.97 223.34 143.86 183.89 218.95 42.05 241.21 0"/><text class="cls-3" transform="translate(0 474.49)">APIPL<tspan class="cls-4" x="300.04" y="0">A</tspan><tspan x="369.72" y="0">TE</tspan></text></g></g></svg>